<?xml version="1.0" encoding="UTF-8"?>
<svg version="1.1" xmlns="http://www.w3.org/2000/svg" width="1811" height="1888">
<path d="M0 0 C0.02343409 16.20383813 0.04103056 32.4076707 0.05181217 48.61152172 C0.0569529 56.1364467 0.06395289 63.66136111 0.07543945 71.1862793 C0.08545458 77.75041868 0.09186957 84.3145504 0.09408849 90.87869722 C0.09538408 94.34941547 0.09839607 97.82011181 0.10573006 101.29082298 C0.11388007 105.17980717 0.11398678 109.06877056 0.11352539 112.95776367 C0.11712067 114.08921814 0.12071594 115.22067261 0.12442017 116.38641357 C0.1160166 122.97675084 -0.21928763 129.47042057 -0.772048 136.03691196 C-1.06636938 139.86271804 -1.14487881 143.66125742 -1.1418457 147.49658203 C-1.14705734 148.61873863 -1.14705734 148.61873863 -1.15237427 149.76356506 C-1.15961912 151.35666316 -1.16502305 152.9497706 -1.16866493 154.54288101 C-1.17594692 157.06519653 -1.19168811 159.58733022 -1.21000671 162.10958862 C-1.26199756 169.26965187 -1.31057303 176.42959478 -1.32592773 183.58984375 C-1.33598513 187.99464228 -1.36521939 192.39894978 -1.40724754 196.80355453 C-1.41956134 198.47568942 -1.4246781 200.14789344 -1.42244911 201.82007217 C-1.42010625 204.14637698 -1.44217068 206.47125147 -1.4699707 208.79736328 C-1.46336929 209.48616074 -1.45676788 210.17495819 -1.44996643 210.8846283 C-1.51112032 213.99060875 -1.59857037 215.58772934 -3.80973816 217.85861206 C-6.99573203 219.51889528 -10.30780105 220.74300529 -13.6875 221.9375 C-20.16762204 224.28509266 -20.16762204 224.28509266 -26.5 227 C-30.73795675 228.94962533 -35.0750991 230.60352065 -39.4375 232.25 C-40.1490625 232.52070313 -40.860625 232.79140625 -41.59375 233.0703125 C-46.7561614 235 -46.7561614 235 -49 235 C-49 235.66 -49 236.32 -49 237 C-49.93199219 237.36351562 -50.86398437 237.72703125 -51.82421875 238.1015625 C-59.20408235 241.00298898 -66.45507403 244.06313081 -73.6328125 247.44140625 C-76.66711482 248.8459151 -79.71885131 250.18572658 -82.7902832 251.50561523 C-89.55097317 254.41214873 -96.15239226 257.52537956 -102.70483398 260.87402344 C-108.18064705 263.6489152 -113.75869454 266.14912846 -119.375 268.625 C-125.31808163 271.25312704 -130.9287862 273.9814968 -136.4140625 277.484375 C-139.85785631 279.50279192 -143.4388296 281.14439698 -147.0625 282.8125 C-157.99670495 287.85793442 -168.67224549 293.36302935 -179 299.5625 C-184.53458365 302.85561566 -190.27339452 305.5793346 -196.12695312 308.24829102 C-199.1523791 309.6318786 -202.02417443 311.0145637 -204.87890625 312.734375 C-207 314 -207 314 -209 314 C-209 314.66 -209 315.32 -209 316 C-209.65991943 316.35843994 -210.31983887 316.71687988 -210.99975586 317.08618164 C-217.87734228 320.82874449 -224.7330985 324.60771474 -231.5625 328.4375 C-232.52607422 328.97181641 -233.48964844 329.50613281 -234.48242188 330.05664062 C-240.15153986 333.24097999 -245.50938095 336.66037728 -250.79614258 340.44458008 C-253.46799121 342.3302949 -256.22331394 344.00374889 -259.0625 345.625 C-260.56683594 346.48931641 -260.56683594 346.48931641 -262.1015625 347.37109375 C-265.36856176 349.20712972 -268.65338681 351.00709321 -271.96484375 352.76171875 C-274.11550488 354.00611741 -274.11550488 354.00611741 -276.30029297 355.87963867 C-278.86270441 357.89216747 -281.41375942 359.53372841 -284.23046875 361.1640625 C-285.19791016 361.72867187 -286.16535156 362.29328125 -287.16210938 362.875 C-288.16048828 363.4525 -289.15886719 364.03 -290.1875 364.625 C-292.18260711 365.78106717 -294.17617595 366.93979439 -296.16796875 368.1015625 C-297.04735107 368.61025879 -297.9267334 369.11895508 -298.83276367 369.64306641 C-301.09820655 370.94881964 -301.09820655 370.94881964 -303 373 C-303.99 373 -304.98 373 -306 373 C-306.26031006 373.61190186 -306.52062012 374.22380371 -306.78881836 374.85424805 C-308.11945304 377.21162522 -309.07394614 377.97999755 -311.37890625 379.33203125 C-312.05373047 379.73873047 -312.72855469 380.14542969 -313.42382812 380.56445312 C-314.12958984 380.97630859 -314.83535156 381.38816406 -315.5625 381.8125 C-320.89333349 384.95632488 -325.80658331 388.32264725 -330.65454102 392.1730957 C-334.71815282 395.33828849 -338.95725586 398.25098685 -343.1875 401.1875 C-344.05052734 401.79013672 -344.91355469 402.39277344 -345.80273438 403.01367188 C-349.27348339 405.43283971 -352.73732092 407.83182321 -356.30078125 410.11328125 C-359.06215722 411.92384812 -359.06215722 411.92384812 -361.3125 414.33203125 C-364.90609548 417.89951048 -368.89134678 420.74274287 -373 423.6875 C-373.7940625 424.26822266 -374.588125 424.84894531 -375.40625 425.44726562 C-376.1796875 426.00478516 -376.953125 426.56230469 -377.75 427.13671875 C-378.79414063 427.89021606 -378.79414063 427.89021606 -379.859375 428.65893555 C-382 430 -382 430 -384.703125 431.05395508 C-387.15944064 431.77162782 -387.15944064 431.77162782 -388 434 C-389 436 -389 436 -391.625 437.25 C-392.800625 437.62125 -392.800625 437.62125 -394 438 C-394 438.66 -394 439.32 -394 440 C-395.65234375 441.48046875 -395.65234375 441.48046875 -397.9375 443.1875 C-398.76507812 443.81527344 -399.59265625 444.44304687 -400.4453125 445.08984375 C-402.02330001 446.26971515 -403.60140136 447.44943435 -405.1796875 448.62890625 C-410.26293898 452.49254977 -414.96731582 456.67571494 -419.63256836 461.02685547 C-422.28091704 463.48023111 -424.92990388 465.78757641 -427.875 467.875 C-433.851111 472.16329722 -439.03308593 477.46419239 -444.38476562 482.48925781 C-446.48563821 484.45422147 -448.60563388 486.39509234 -450.75 488.3125 C-451.63945312 489.11107422 -451.63945312 489.11107422 -452.546875 489.92578125 C-454 491 -454 491 -456 491 C-456.2165625 491.55300781 -456.433125 492.10601562 -456.65625 492.67578125 C-458.43412706 495.75088838 -460.8668898 497.8638049 -463.5 500.1875 C-464.03173828 500.66437256 -464.56347656 501.14124512 -465.11132812 501.63256836 C-466.20505725 502.61304633 -467.30076943 503.5913166 -468.3984375 504.56738281 C-469.90339883 505.91358908 -471.38989112 507.28036165 -472.875 508.6484375 C-474.174375 509.84339844 -474.174375 509.84339844 -475.5 511.0625 C-476.2734375 511.77535156 -477.046875 512.48820313 -477.84375 513.22265625 C-479.8355748 514.86446836 -481.64624722 515.96755844 -484 517 C-484 517.66 -484 518.32 -484 519 C-485.2578125 520.19921875 -485.2578125 520.19921875 -487.125 521.6875 C-492.08018808 525.8857677 -496.38465044 530.60509559 -500.77807617 535.37207031 C-504.09686069 538.96887053 -507.44907651 542.50283646 -510.9375 545.9375 C-513.5168435 548.47905092 -515.96261346 551.05784831 -518.3125 553.8125 C-521.32288808 557.3327682 -524.56978971 560.57270372 -527.875 563.8125 C-532.56757844 568.43003798 -536.80963357 573.24978332 -540.9140625 578.40625 C-543.53754128 581.66840339 -546.30756002 584.77815848 -549.10546875 587.890625 C-550.90171093 589.89056475 -552.67310653 591.90946152 -554.4375 593.9375 C-557.046287 596.93080209 -559.70249963 599.8759918 -562.375 602.8125 C-567.88819983 608.92146585 -573.42974119 615.14461178 -578 622 C-578.66 622 -579.32 622 -580 622 C-580.4021875 622.86431641 -580.4021875 622.86431641 -580.8125 623.74609375 C-582.02862441 626.05432988 -583.40878304 627.997896 -585 630.0625 C-586.75121278 632.34345464 -588.40257851 634.60386777 -590 637 C-590.66 637 -591.32 637 -592 637 C-592.309375 638.0209375 -592.309375 638.0209375 -592.625 639.0625 C-594.12818387 642.27384735 -595.94433859 644.41427486 -598.29272461 647.0324707 C-603.39322252 652.91047909 -607.77758301 659.43338639 -612.3125 665.75 C-616.1345234 671.06287972 -619.98598299 676.34515806 -623.9375 681.5625 C-626.88604148 685.46718083 -629.66621898 689.42735499 -632.33984375 693.5234375 C-634.49114208 696.73266843 -636.74394487 699.86388798 -639 703 C-642.31143414 707.60401504 -645.52890219 712.24729574 -648.63671875 716.9921875 C-650.03986186 719.05870772 -651.53319092 721.02544903 -653.0625 723 C-655.68347442 726.43320347 -657.72965388 730.01501818 -659.7734375 733.8125 C-661.61667973 737.09981098 -663.66770192 740.03735109 -666 743 C-666.66 743 -667.32 743 -668 743 C-668.22816406 743.82886719 -668.45632813 744.65773438 -668.69140625 745.51171875 C-670.26757551 749.71326844 -672.45100989 753.09958293 -674.9375 756.8125 C-675.92325254 758.31114829 -676.90892721 759.8098478 -677.89453125 761.30859375 C-678.40322754 762.07671387 -678.91192383 762.84483398 -679.43603516 763.63623047 C-682.01718219 767.53736465 -684.57315654 771.45466004 -687.125 775.375 C-687.59800537 776.09405518 -688.07101074 776.81311035 -688.55834961 777.55395508 C-688.99542236 778.22450928 -689.43249512 778.89506348 -689.8828125 779.5859375 C-690.26840332 780.1742334 -690.65399414 780.7625293 -691.05126953 781.36865234 C-692.16549889 783.15721553 -692.16549889 783.15721553 -693 786 C-693.66 786 -694.32 786 -695 786 C-695.06832031 786.66773438 -695.13664062 787.33546875 -695.20703125 788.0234375 C-696.28961139 792.08711272 -698.39567512 795.13228045 -700.6875 798.625 C-704.74319237 804.95107285 -708.48868014 811.35318962 -712 818 C-714.35537142 822.35784747 -716.79070809 826.66122796 -719.32421875 830.91796875 C-723.70064724 838.27372233 -727.90638763 845.5988621 -731.640625 853.30859375 C-733.40543334 856.80271141 -735.44247351 860.09365458 -737.4921875 863.42578125 C-739.70218055 867.19880047 -741.60277226 871.10911446 -743.5078125 875.04296875 C-744.87563527 877.75354948 -746.34274895 880.38293505 -747.86181641 883.01098633 C-750.17696885 887.0567922 -752.39344988 891.15768592 -754.625 895.25 C-755.15134033 896.21510498 -755.67768066 897.18020996 -756.2199707 898.17456055 C-760.83541633 906.65905042 -765.34369282 915.19683867 -769.82080078 923.75488281 C-770.98612257 925.97357829 -772.1609358 928.1869347 -773.33984375 930.3984375 C-778.034838 939.20628658 -782.58692084 948.07174606 -787.01611328 957.01611328 C-788.33677924 959.67907398 -789.66646437 962.33747833 -790.99682617 964.99560547 C-792.00413803 967.008268 -793.00987825 969.02171126 -794.015625 971.03515625 C-795.29144157 973.58741114 -796.57271246 976.13679078 -797.859375 978.68359375 C-802.00647348 986.90867241 -806.02517739 995.19024476 -810 1003.5 C-814.56876534 1013.05145058 -819.22282907 1022.55137004 -824 1032 C-828.44023495 1040.7846375 -832.78483176 1049.60478473 -837 1058.5 C-842.70870913 1070.53057994 -848.40828505 1082.44453338 -855.22265625 1093.89453125 C-860.79290724 1103.6271676 -865.42357232 1113.87653328 -870.12939453 1124.04541016 C-872.34875321 1128.78040914 -874.79165258 1133.25726136 -877.67578125 1137.62890625 C-878.82638981 1139.68914045 -879.61214137 1141.56452836 -880.40625 1143.7734375 C-881.97219852 1148.0904172 -884.00183004 1152.03089217 -886.1875 1156.0625 C-887.07564548 1157.72449878 -887.9622471 1159.38732311 -888.84765625 1161.05078125 C-889.34152832 1161.97842285 -889.83540039 1162.90606445 -890.34423828 1163.86181641 C-893.99433738 1170.77988981 -897.55401219 1177.74543049 -901.12826538 1184.70291138 C-907.70388692 1197.50014046 -914.4183738 1210.21750015 -921.375 1222.8125 C-921.83632324 1223.64869873 -922.29764648 1224.48489746 -922.77294922 1225.34643555 C-923.7198635 1227.06197007 -924.66728482 1228.77722482 -925.61523438 1230.4921875 C-926.95006928 1232.9095754 -928.28013487 1235.32953238 -929.609375 1237.75 C-934.23985385 1246.16013396 -939.00054634 1254.46674237 -943.9921875 1262.66796875 C-945.69404915 1265.49226445 -947.33147957 1268.34457109 -948.95947266 1271.21166992 C-950.80408024 1274.38195396 -952.78559619 1277.46559839 -954.75 1280.5625 C-958.01865271 1285.74778004 -961.18096152 1290.9709304 -964.1875 1296.3125 C-967.06859021 1301.42093907 -970.10875798 1306.37711448 -973.29296875 1311.30078125 C-975.06263885 1314.09904678 -976.72546688 1316.94193317 -978.375 1319.8125 C-985.05544643 1331.34474969 -992.5493616 1342.36256661 -999.96240234 1353.4309082 C-1003.62778119 1358.91091548 -1007.221037 1364.41847194 -1010.66796875 1370.0390625 C-1012 1372 -1012 1372 -1013.54296875 1373.5234375 C-1015.21993999 1375.22288825 -1016.06507679 1376.86445101 -1017.125 1379 C-1019.80201701 1383.99492199 -1023.2369407 1388.12980792 -1026.9140625 1392.421875 C-1028.88441538 1394.85714261 -1030.41716742 1397.30444043 -1032 1400 C-1033.07960875 1401.45603408 -1034.18428202 1402.89379831 -1035.3125 1404.3125 C-1037.55956825 1407.16129364 -1039.77752959 1410.0221301 -1041.9375 1412.9375 C-1044.26246665 1416.06031044 -1046.67695968 1419.09775606 -1049.125 1422.125 C-1051.35813855 1424.88659118 -1053.47747243 1427.62294145 -1055.375 1430.625 C-1055.91125 1431.40875 -1056.4475 1432.1925 -1057 1433 C-1057.66 1433 -1058.32 1433 -1059 1433 C-1059.22429688 1433.69738281 -1059.44859375 1434.39476562 -1059.6796875 1435.11328125 C-1061.29678518 1438.6488883 -1063.57587552 1441.30400761 -1066.125 1444.1875 C-1067.12343374 1445.34155078 -1068.12082148 1446.4965073 -1069.1171875 1447.65234375 C-1069.60799805 1448.21937012 -1070.09880859 1448.78639648 -1070.60449219 1449.37060547 C-1075.09353269 1454.61200791 -1079.30174626 1460.08775019 -1083.5 1465.5625 C-1086.46464454 1469.39239147 -1089.62377408 1472.99425265 -1092.875 1476.58203125 C-1096.09490119 1480.24585264 -1099.10023591 1484.07852261 -1102.1171875 1487.91015625 C-1103.04917969 1488.94462891 -1103.04917969 1488.94462891 -1104 1490 C-1104.66 1490 -1105.32 1490 -1106 1490 C-1106.27255615 1490.59474121 -1106.5451123 1491.18948242 -1106.82592773 1491.80224609 C-1107.96800049 1493.94009989 -1109.12292732 1495.41611757 -1110.78515625 1497.1640625 C-1111.31560547 1497.72867187 -1111.84605469 1498.29328125 -1112.39257812 1498.875 C-1112.94365234 1499.4525 -1113.49472656 1500.03 -1114.0625 1500.625 C-1117.96570729 1504.49326309 -1117.96570729 1504.49326309 -1121 1509 C-1121.66 1509 -1122.32 1509 -1123 1509 C-1123.2475 1509.556875 -1123.495 1510.11375 -1123.75 1510.6875 C-1125.22924818 1513.42410913 -1126.93467439 1515.67650869 -1129 1518 C-1129.66 1518 -1130.32 1518 -1131 1518 C-1131 1518.66 -1131 1519.32 -1131 1520 C-1131.66 1520 -1132.32 1520 -1133 1520 C-1133.25394531 1520.59296875 -1133.50789063 1521.1859375 -1133.76953125 1521.796875 C-1135.13626374 1524.24397699 -1136.51742982 1525.49347954 -1138.6875 1527.25 C-1141.55971372 1529.67197481 -1144.07860006 1532.1277187 -1146.5 1535 C-1149.45624989 1538.48945478 -1152.6511992 1541.44219545 -1156.140625 1544.390625 C-1157.81391355 1545.83893358 -1159.34780896 1547.33844114 -1160.875 1548.9375 C-1163 1551 -1163 1551 -1165 1551 C-1165 1551.66 -1165 1552.32 -1165 1553 C-1165.66 1553 -1166.32 1553 -1167 1553 C-1167.26466064 1553.59441895 -1167.52932129 1554.18883789 -1167.80200195 1554.80126953 C-1169.04333637 1557.07953685 -1170.2658645 1558.43262986 -1172.16796875 1560.1796875 C-1173.12606445 1561.06829468 -1173.12606445 1561.06829468 -1174.10351562 1561.97485352 C-1174.79123047 1562.60190186 -1175.47894531 1563.2289502 -1176.1875 1563.875 C-1177.63945753 1565.21469787 -1179.0912771 1566.55454528 -1180.54296875 1567.89453125 C-1181.28337402 1568.57467285 -1182.0237793 1569.25481445 -1182.78662109 1569.95556641 C-1184.91051864 1571.91734867 -1187.01533488 1573.89724315 -1189.11328125 1575.88671875 C-1189.76723877 1576.50498535 -1190.42119629 1577.12325195 -1191.0949707 1577.76025391 C-1192.32377338 1578.92275824 -1193.55034568 1580.08762687 -1194.77416992 1581.25537109 C-1198.3892136 1584.65614071 -1202.15595185 1587.64658468 -1206.1574707 1590.57958984 C-1208.66237033 1592.51062284 -1210.79838413 1594.73373635 -1213 1597 C-1215.06566361 1598.85861734 -1217.18468765 1600.65062693 -1219.3125 1602.4375 C-1219.88355469 1602.91904541 -1220.45460938 1603.40059082 -1221.04296875 1603.89672852 C-1224.72547261 1606.98301251 -1228.46570739 1609.95684398 -1232.3515625 1612.78515625 C-1233.9011525 1613.92715267 -1235.39094669 1615.14904292 -1236.875 1616.375 C-1239 1618 -1239 1618 -1241 1618 C-1241 1618.66 -1241 1619.32 -1241 1620 C-1242.31005859 1621.20166016 -1242.31005859 1621.20166016 -1244.1484375 1622.5390625 C-1244.81883057 1623.032854 -1245.48922363 1623.52664551 -1246.17993164 1624.03540039 C-1246.9043042 1624.55996826 -1247.62867676 1625.08453613 -1248.375 1625.625 C-1249.86161277 1626.71878148 -1251.34729284 1627.81383179 -1252.83203125 1628.91015625 C-1253.91605225 1629.70897217 -1253.91605225 1629.70897217 -1255.02197266 1630.52392578 C-1257.41797699 1632.31190927 -1259.74705417 1634.17161809 -1262.0625 1636.0625 C-1266.76487466 1639.88019061 -1271.64068898 1643.43906299 -1276.56079102 1646.96899414 C-1279.70961133 1649.24545776 -1282.7214562 1651.58649932 -1285.64453125 1654.1484375 C-1288.29254958 1656.45465698 -1290.94144704 1658.25629492 -1294 1660 C-1295.21555674 1660.80624714 -1296.42465306 1661.62227733 -1297.62890625 1662.4453125 C-1298.59280273 1663.10080078 -1298.59280273 1663.10080078 -1299.57617188 1663.76953125 C-1300.90669784 1664.67748112 -1302.23480929 1665.58897884 -1303.56054688 1666.50390625 C-1304.20185547 1666.93832031 -1304.84316406 1667.37273437 -1305.50390625 1667.8203125 C-1306.07955322 1668.21492676 -1306.6552002 1668.60954102 -1307.24829102 1669.01611328 C-1309 1670 -1309 1670 -1311.15991211 1670.51904297 C-1311.76714111 1670.67775879 -1312.37437012 1670.83647461 -1313 1671 C-1313.309375 1671.61875 -1313.61875 1672.2375 -1313.9375 1672.875 C-1315.40347378 1675.80694757 -1317.12401603 1676.40903014 -1320 1678 C-1321.37997369 1678.93016335 -1322.75442436 1679.86854361 -1324.125 1680.8125 C-1327.45146167 1683.05400646 -1330.82313823 1685.01280962 -1334.375 1686.875 C-1338.17092092 1688.89844545 -1341.57661843 1691.08551803 -1345 1693.6875 C-1350.65970377 1697.93025361 -1356.66950114 1701.36699042 -1362.80737305 1704.85546875 C-1367.73890021 1707.6665317 -1372.5673222 1710.57260492 -1377.3125 1713.6875 C-1384.05100117 1718.09009301 -1390.94848392 1722.12073588 -1398 1726 C-1398.72960938 1726.40347656 -1399.45921875 1726.80695313 -1400.2109375 1727.22265625 C-1402 1728 -1402 1728 -1405 1728 C-1405 1728.66 -1405 1729.32 -1405 1730 C-1417.32625815 1736.78875989 -1429.70780179 1743.50318089 -1442.38671875 1749.61328125 C-1445.06877685 1750.96720191 -1445.06877685 1750.96720191 -1447.625 1752.84375 C-1452.17569064 1755.94387611 -1457.29683051 1757.96285223 -1462.3125 1760.1875 C-1469.47079443 1763.40567523 -1476.50913148 1766.69687278 -1483.375 1770.5 C-1493.63945938 1776.15253604 -1504.53631056 1780.40973795 -1515.35693359 1784.86621094 C-1517.45046304 1785.76426661 -1519.49612318 1786.77379956 -1521.51953125 1787.8203125 C-1524 1789 -1524 1789 -1528 1789 C-1528 1789.66 -1528 1790.32 -1528 1791 C-1553.51056533 1802.43093035 -1553.51056533 1802.43093035 -1565.6953125 1806.68359375 C-1568.2073805 1807.68426386 -1570.27325566 1808.6802704 -1572.57421875 1810.0390625 C-1575.64344128 1811.79590368 -1578.32291114 1812.91920742 -1581.6875 1813.9375 C-1585.89420362 1815.27337724 -1589.94302353 1816.7612958 -1594 1818.5 C-1599.03693183 1820.65208359 -1604.12810221 1822.41662294 -1609.3359375 1824.10546875 C-1612.64767369 1825.21747401 -1615.80124165 1826.59703581 -1619 1828 C-1622.12014945 1829.23210447 -1625.251424 1830.43195466 -1628.38671875 1831.625 C-1630.76829849 1832.53128764 -1633.14604151 1833.44773209 -1635.51953125 1834.375 C-1644.85587714 1837.97267046 -1654.30354614 1841.08142175 -1663.86816406 1844.02075195 C-1668.98265753 1845.61504441 -1673.94405384 1847.34119719 -1678.87109375 1849.44921875 C-1685.55577147 1852.30371256 -1692.38996904 1854.54754505 -1699.3125 1856.75 C-1700.53517578 1857.14832031 -1701.75785156 1857.54664063 -1703.01757812 1857.95703125 C-1704.20416016 1858.33730469 -1705.39074219 1858.71757813 -1706.61328125 1859.109375 C-1707.67329346 1859.44936523 -1708.73330566 1859.78935547 -1709.82543945 1860.13964844 C-1713.20439594 1861.05539424 -1716.53682059 1861.51262567 -1720 1862 C-1721.63121067 1862.68510848 -1723.26099731 1863.3753149 -1724.8671875 1864.1171875 C-1728.70250438 1865.70469961 -1732.71042831 1866.77605819 -1736.68359375 1867.96484375 C-1739.6119482 1868.87887665 -1742.45066738 1869.89929515 -1745.3125 1871 C-1750.41660151 1872.89920056 -1755.61283619 1874.22575481 -1760.89697266 1875.50439453 C-1765.18800681 1876.54314922 -1769.44316525 1877.65513182 -1773.6875 1878.875 C-1775.36972656 1879.35839844 -1775.36972656 1879.35839844 -1777.0859375 1879.8515625 C-1780.13992677 1880.74008402 -1783.18315667 1881.66187069 -1786.2265625 1882.5859375 C-1788.08851894 1883.14070128 -1789.95049809 1883.69538885 -1791.8125 1884.25 C-1792.68414795 1884.52054199 -1793.5557959 1884.79108398 -1794.45385742 1885.06982422 C-1795.30052979 1885.32006348 -1796.14720215 1885.57030273 -1797.01953125 1885.828125 C-1797.76307861 1886.0540332 -1798.50662598 1886.27994141 -1799.27270508 1886.51269531 C-1803.12417975 1887.20086499 -1807.08752832 1887 -1811 1887 C-1811 1822.65 -1811 1758.3 -1811 1692 C-1794.21238938 1686.40412979 -1794.21238938 1686.40412979 -1787.5 1684.9375 C-1786.04776869 1684.61118725 -1784.59595078 1684.28302974 -1783.14453125 1683.953125 C-1782.44150879 1683.79392578 -1781.73848633 1683.63472656 -1781.01416016 1683.47070312 C-1776.83804924 1682.49475866 -1772.71141715 1681.33023202 -1768.57421875 1680.203125 C-1764.75607686 1679.18160851 -1760.92110805 1678.23646964 -1757.08203125 1677.296875 C-1755.83719971 1676.99112549 -1754.59236816 1676.68537598 -1753.30981445 1676.37036133 C-1750.81085953 1675.75847368 -1748.31072666 1675.15137265 -1745.80932617 1674.54956055 C-1739.9133698 1673.10239722 -1734.52369175 1671.49343119 -1729 1669 C-1726.88864667 1668.44519183 -1724.76253909 1667.94334144 -1722.625 1667.5 C-1718.94476883 1666.73290467 -1715.40518537 1665.83522146 -1711.8515625 1664.62109375 C-1706.21672825 1662.69610612 -1700.4897286 1661.14090366 -1694.75 1659.5625 C-1680.03413402 1655.75255946 -1680.03413402 1655.75255946 -1665.77954102 1650.58642578 C-1662.21153111 1649.04801354 -1658.5933019 1647.84291413 -1654.87890625 1646.6953125 C-1654.21648422 1646.48945526 -1653.55406219 1646.28359802 -1652.87156677 1646.07150269 C-1650.76961796 1645.41914025 -1648.66612531 1644.77193333 -1646.5625 1644.125 C-1645.18804263 1643.69956885 -1643.8136929 1643.27378977 -1642.43945312 1642.84765625 C-1636.77275786 1641.09178829 -1631.10533934 1639.33848879 -1625.43310547 1637.60058594 C-1623.96448773 1637.1478854 -1622.49589951 1636.69508908 -1621.02734375 1636.2421875 C-1619.99136803 1635.92678513 -1619.99136803 1635.92678513 -1618.9344635 1635.60501099 C-1615.70597284 1634.78482678 -1615.70597284 1634.78482678 -1613 1633 C-1611.33382885 1632.95936168 -1609.66611905 1632.957279 -1608 1633 C-1608 1632.34 -1608 1631.68 -1608 1631 C-1607.10539062 1630.68546875 -1606.21078125 1630.3709375 -1605.2890625 1630.046875 C-1603.47535156 1629.40492188 -1603.47535156 1629.40492188 -1601.625 1628.75 C-1600.44164062 1628.33234375 -1599.25828125 1627.9146875 -1598.0390625 1627.484375 C-1595.10499602 1626.42681895 -1592.21352654 1625.28738159 -1589.32421875 1624.11328125 C-1582.24946078 1621.25938212 -1575.03854807 1618.78255994 -1567.83789062 1616.26757812 C-1566.77119141 1615.88923828 -1565.70449219 1615.51089844 -1564.60546875 1615.12109375 C-1563.64793701 1614.7852124 -1562.69040527 1614.44933105 -1561.70385742 1614.10327148 C-1558.93420915 1612.97315496 -1556.54332224 1611.56562748 -1554 1610 C-1551.61117006 1609.03223187 -1549.23556535 1608.12051754 -1546.8125 1607.25 C-1545.3838295 1606.72342908 -1543.95545513 1606.19605416 -1542.52734375 1605.66796875 C-1541.41528564 1605.25877197 -1541.41528564 1605.25877197 -1540.28076172 1604.84130859 C-1529.8955705 1601.01050481 -1519.80508792 1597.04730074 -1509.9609375 1591.953125 C-1504.8876164 1589.39095013 -1499.65577171 1587.18470863 -1494.4375 1584.9375 C-1493.43799316 1584.50622803 -1492.43848633 1584.07495605 -1491.40869141 1583.63061523 C-1489.47368477 1582.79577799 -1487.53862811 1581.96105671 -1485.60351562 1581.12646484 C-1482.28669599 1579.69137428 -1478.9814535 1578.23696242 -1475.6875 1576.75 C-1474.80449219 1576.35296875 -1473.92148438 1575.9559375 -1473.01171875 1575.546875 C-1470.40089316 1574.20590621 -1467.968756 1572.75902145 -1465.4765625 1571.21484375 C-1459.44739439 1567.55558387 -1453.1150404 1564.69557526 -1446.6875 1561.8125 C-1444.39854973 1560.77997744 -1442.11074328 1559.74491456 -1439.82421875 1558.70703125 C-1438.82479248 1558.2581958 -1437.82536621 1557.80936035 -1436.7956543 1557.34692383 C-1433.96004183 1556.03711233 -1433.96004183 1556.03711233 -1431.26098633 1554.33081055 C-1429 1553 -1429 1553 -1427 1553 C-1427 1552.34 -1427 1551.68 -1427 1551 C-1425.56333984 1550.29037109 -1425.56333984 1550.29037109 -1424.09765625 1549.56640625 C-1405.27588477 1540.51578791 -1405.27588477 1540.51578791 -1387.4921875 1529.65625 C-1383.95741337 1527.30712111 -1380.29203576 1525.19736913 -1376.625 1523.0625 C-1365.19783688 1516.58779949 -1365.19783688 1516.58779949 -1354.53125 1508.984375 C-1352.02501821 1507.01961304 -1349.57364593 1505.58636061 -1346.75 1504.125 C-1340.28923641 1500.67288271 -1334.15689325 1496.95011573 -1328.625 1492.125 C-1326 1490 -1326 1490 -1323 1490 C-1323 1489.34 -1323 1488.68 -1323 1488 C-1321.58569336 1486.86181641 -1321.58569336 1486.86181641 -1319.58984375 1485.6015625 C-1318.85459473 1485.12823486 -1318.1193457 1484.65490723 -1317.36181641 1484.16723633 C-1316.56179199 1483.65829834 -1315.76176758 1483.14936035 -1314.9375 1482.625 C-1307.42189068 1477.73859169 -1300.40020861 1472.49910947 -1293.47265625 1466.8203125 C-1290.24046173 1464.17097273 -1286.92455025 1461.67011533 -1283.5625 1459.1875 C-1279.58635474 1456.23711562 -1275.84363413 1453.16735694 -1272.16796875 1449.85546875 C-1269.49630076 1447.56890605 -1266.68806362 1445.48188132 -1263.875 1443.375 C-1258.18028528 1439.09307701 -1252.96838176 1434.41467312 -1247.84521484 1429.46630859 C-1239.00297395 1421 -1239.00297395 1421 -1235 1421 C-1235 1420.34 -1235 1419.68 -1235 1419 C-1234.34 1419 -1233.68 1419 -1233 1419 C-1233 1418.34 -1233 1417.68 -1233 1417 C-1232.34 1417 -1231.68 1417 -1231 1417 C-1230.79246094 1416.45472656 -1230.58492187 1415.90945313 -1230.37109375 1415.34765625 C-1228.48120058 1412.11168532 -1225.8299569 1409.90522419 -1223.0625 1407.4375 C-1215.15332741 1400.22108691 -1207.57035416 1392.69255065 -1200 1385.125 C-1199.11575851 1384.24423294 -1199.11575851 1384.24423294 -1198.21365356 1383.34567261 C-1191.91942766 1377.07353823 -1185.74736998 1370.78441308 -1180 1364 C-1178.50429773 1362.32947538 -1177.00495734 1360.66219168 -1175.5 1359 C-1172.81016569 1356.01937279 -1170.13689636 1353.02754767 -1167.5 1350 C-1164.86310364 1346.97245233 -1162.18983431 1343.98062721 -1159.5 1341 C-1155.62526274 1336.7012595 -1151.77937853 1332.38287211 -1148 1328 C-1147.56864746 1327.50032715 -1147.13729492 1327.0006543 -1146.69287109 1326.48583984 C-1145.2285858 1324.78575016 -1143.76993444 1323.08096486 -1142.3125 1321.375 C-1141.84859863 1320.83641357 -1141.38469727 1320.29782715 -1140.90673828 1319.74291992 C-1137.99088879 1316.31414551 -1135.48494019 1312.76017319 -1133 1309 C-1131.6470459 1307.31538789 -1130.27134707 1305.64882311 -1128.875 1304 C-1123.98673992 1298.09234907 -1119.57438121 1291.91427182 -1115.16699219 1285.64746094 C-1113.49397293 1283.28563376 -1111.77771681 1280.95629469 -1110.0625 1278.625 C-1101.78608635 1267.26782875 -1093.98587368 1255.56745218 -1086.23046875 1243.85083008 C-1085.35747165 1242.53769694 -1084.47933397 1241.22797483 -1083.59765625 1239.9206543 C-1079.79120794 1234.26391837 -1076.18538235 1228.50156548 -1072.625 1222.6875 C-1069.03403138 1216.84586464 -1065.41930908 1211.04502953 -1061.5625 1205.375 C-1058.55117292 1200.9399074 -1055.99693894 1196.38190466 -1053.49609375 1191.64453125 C-1051.98379211 1188.97135055 -1050.30820777 1186.54334524 -1048.5 1184.0625 C-1045.33588893 1179.67446904 -1042.94022311 1175.14564459 -1040.65234375 1170.25 C-1039.27674954 1167.54433952 -1037.81767597 1164.99988981 -1036.2421875 1162.41015625 C-1032.67589425 1156.53206132 -1029.4265889 1150.50047897 -1026.1875 1144.4375 C-1025.57583984 1143.29651855 -1024.96417969 1142.15553711 -1024.33398438 1140.97998047 C-1022.55298474 1137.65491609 -1020.77583848 1134.32782309 -1019 1131 C-1018.53029785 1130.12134277 -1018.0605957 1129.24268555 -1017.57666016 1128.33740234 C-1013.44722033 1120.60793805 -1009.39661785 1112.85403807 -1005.515625 1104.99609375 C-1004.11951474 1102.23625722 -1002.66792557 1099.51238489 -1001.19360352 1096.79370117 C-997.33960591 1089.68330472 -993.79396648 1082.46634773 -990.3671875 1075.14086914 C-987.88618855 1069.8435286 -985.32125914 1064.59787829 -982.6875 1059.375 C-982.03504717 1058.05864781 -981.38269811 1056.74224418 -980.73046875 1055.42578125 C-979.73817186 1053.461347 -978.71622211 1051.50998352 -977.61328125 1049.60546875 C-972.61451296 1040.43229046 -974.16132519 1028.29320077 -976.5 1018.5 C-982.09623059 999.98939113 -992.51745876 982.44554219 -1004 967 C-1005.02867187 965.6078125 -1005.02867187 965.6078125 -1006.078125 964.1875 C-1008.36872475 961.11200943 -1010.67974174 958.05317127 -1013 955 C-1013.40653809 954.46439453 -1013.81307617 953.92878906 -1014.23193359 953.37695312 C-1019.36301041 946.62648679 -1024.59053657 939.97529153 -1029.9921875 933.4375 C-1031.35258886 931.78596216 -1032.69726413 930.12136659 -1034.02734375 928.4453125 C-1036.41581898 925.48454914 -1038.95437603 922.68190732 -1041.51171875 919.8671875 C-1043 918 -1043 918 -1044 915 C-1044.66 915 -1045.32 915 -1046 915 C-1047.56432787 913.30725716 -1049.05328572 911.54430148 -1050.5 909.75 C-1051.2940625 908.77546875 -1052.088125 907.8009375 -1052.90625 906.796875 C-1054.58748034 904.55105238 -1055.88135899 902.5534197 -1057 900 C-1057.66 900 -1058.32 900 -1059 900 C-1059 899.34 -1059 898.68 -1059 898 C-1059.66 898 -1060.32 898 -1061 898 C-1062.41015625 896.63671875 -1062.41015625 896.63671875 -1064.0625 894.6875 C-1064.68769531 893.9553125 -1065.31289062 893.223125 -1065.95703125 892.46875 C-1067.34376027 890.79300862 -1068.71574701 889.10497926 -1070.07421875 887.40625 C-1074.86404356 881.42111882 -1079.93975546 875.94864724 -1085.40234375 870.5859375 C-1088.76757895 867.23588382 -1092.18378523 863.83505014 -1095 860 C-1095 859.34 -1095 858.68 -1095 858 C-1095.66 858 -1096.32 858 -1097 858 C-1097 857.34 -1097 856.68 -1097 856 C-1097.66 856 -1098.32 856 -1099 856 C-1100.3046875 854.7421875 -1100.3046875 854.7421875 -1101.875 852.875 C-1102.49117187 852.15183594 -1103.10734375 851.42867187 -1103.7421875 850.68359375 C-1104.48726562 849.79800781 -1105.23234375 848.91242187 -1106 848 C-1107.99525694 845.6417776 -1109.99584455 843.28816395 -1112 840.9375 C-1112.52279541 840.32422852 -1113.04559082 839.71095703 -1113.58422852 839.07910156 C-1116.69840822 835.44923838 -1119.88396694 831.97245822 -1123.33984375 828.66186523 C-1124.92616282 827.07391319 -1126.35245106 825.43108084 -1127.79296875 823.7109375 C-1133.65943197 816.96160825 -1140.14755755 810.78618901 -1146.5 804.5 C-1161.72471876 789.43406897 -1161.72471876 789.43406897 -1168 782 C-1169.73205942 780.06619502 -1171.49124907 778.15980929 -1173.25 776.25 C-1174.20193243 775.21624667 -1175.15375205 774.18238945 -1176.10546875 773.1484375 C-1176.58419434 772.62862305 -1177.06291992 772.10880859 -1177.55615234 771.57324219 C-1178.97677502 770.02530636 -1180.38992651 768.47090186 -1181.80078125 766.9140625 C-1186.96837749 761.22168921 -1192.26237475 755.70004505 -1197.734375 750.296875 C-1200.34105715 747.65423861 -1202.74562317 744.88247855 -1205.15625 742.0625 C-1208.15350228 738.70964151 -1211.39159634 735.60106244 -1214.58984375 732.44140625 C-1217.26042727 729.73619604 -1219.73256164 726.91237975 -1222.1953125 724.01953125 C-1225.06149035 720.81214175 -1228.17283319 717.8577525 -1231.27734375 714.8828125 C-1233 713 -1233 713 -1233 711 C-1233.66 711 -1234.32 711 -1235 711 C-1236.26953125 709.70703125 -1236.26953125 709.70703125 -1237.8125 707.8125 C-1241.83610721 703.04409741 -1246.24599605 698.72201382 -1250.73168945 694.39379883 C-1252.19058334 692.96517864 -1253.5999677 691.48635008 -1255 690 C-1255 689.34 -1255 688.68 -1255 688 C-1255.66 688 -1256.32 688 -1257 688 C-1258.375 686.6015625 -1258.375 686.6015625 -1260 684.625 C-1262.86045355 681.25204852 -1265.84869661 678.10326523 -1269 675 C-1271.91053801 672.12442341 -1274.72424022 669.24125906 -1277.375 666.125 C-1280.41430745 662.56713773 -1283.6736402 659.28558309 -1287 656 C-1290.87728785 652.17012625 -1294.56243613 648.27948691 -1298.09375 644.125 C-1301.1200153 640.75145836 -1304.37210706 637.60796464 -1307.59545898 634.42407227 C-1310.94669319 631.09806297 -1314.09101924 627.66993301 -1317.1484375 624.0703125 C-1320.41265125 620.42045324 -1323.94877221 617.03450976 -1327.44921875 613.61328125 C-1330 611 -1330 611 -1332.09765625 608.375 C-1333.8566154 606.17900993 -1335.59530843 604.48159236 -1337.75 602.6875 C-1343.3415877 597.89471054 -1348.51879692 592.78015359 -1353.3125 587.1875 C-1356.2225047 583.79804373 -1359.32160325 580.63548893 -1362.5 577.5 C-1365.59492611 574.44663047 -1368.61934337 571.37676245 -1371.4375 568.0625 C-1374.93441901 563.95888661 -1378.75384284 560.21850364 -1382.58642578 556.43310547 C-1386.03340143 553.0121857 -1389.2830871 549.48659198 -1392.4296875 545.78515625 C-1394.02445876 543.9721949 -1395.7015927 542.30252477 -1397.4375 540.625 C-1400.04667985 538.06743031 -1402.28243925 535.40246612 -1404.5 532.5 C-1408.76074434 527.04457636 -1413.596427 522.26404927 -1418.54492188 517.44140625 C-1422.16316227 513.90256298 -1425.54917446 510.29377581 -1428.75146484 506.37182617 C-1429.97433066 504.86264066 -1429.97433066 504.86264066 -1432 504 C-1432 503.34 -1432 502.68 -1432 502 C-1432.66 502 -1433.32 502 -1434 502 C-1434 501.34 -1434 500.68 -1434 500 C-1434.5465625 499.78988281 -1435.093125 499.57976562 -1435.65625 499.36328125 C-1438.85324857 497.50369375 -1441.06699175 494.92010252 -1443.5 492.1875 C-1444.5662021 491.01023174 -1445.6326145 489.83315392 -1446.69921875 488.65625 C-1447.24368652 488.05167969 -1447.7881543 487.44710938 -1448.34912109 486.82421875 C-1450.97687839 483.92055083 -1453.64745686 481.05689689 -1456.3125 478.1875 C-1459.43317533 474.81899468 -1462.51901325 471.43095662 -1465.5 467.9375 C-1468.99061146 463.89078623 -1472.79413991 460.17915721 -1476.59326172 456.42602539 C-1479.97104211 453.07422792 -1483.14252494 449.61781215 -1486.2265625 445.9921875 C-1489.19327981 442.65953149 -1492.41292191 439.57998349 -1495.5859375 436.4453125 C-1498.2883191 433.70794862 -1500.792911 430.84967702 -1503.2890625 427.92578125 C-1505.11118553 425.87485282 -1507.03227335 423.97368278 -1509 422.0625 C-1511.65980526 419.45326138 -1513.93701653 416.82510036 -1516.125 413.8125 C-1519.84555817 408.85747092 -1524.3095616 404.87969782 -1528.87866211 400.73217773 C-1532.60033675 397.34147322 -1536.01409212 393.88561854 -1539.23828125 390.01171875 C-1541.49351614 387.43645053 -1543.92778328 385.08070918 -1546.375 382.6875 C-1550.83768299 378.31041932 -1554.77975339 373.66348133 -1558.66796875 368.7734375 C-1562.04331116 364.75921118 -1565.75139906 361.15088403 -1569.51953125 357.5078125 C-1570.33808594 356.68023437 -1571.15664062 355.85265625 -1572 355 C-1572.70123867 354.35883397 -1573.40247734 353.71766794 -1574.12496567 353.05707264 C-1576.9944488 348.37864184 -1576.53836381 343.96523139 -1576.48101807 338.57902527 C-1576.48443577 337.41094072 -1576.48785347 336.24285617 -1576.49137473 335.03937513 C-1576.49682333 331.80098452 -1576.48432668 328.56323466 -1576.46426249 325.32491982 C-1576.44698618 321.83145116 -1576.4528343 318.3380123 -1576.45587158 314.84451294 C-1576.45796884 308.79310722 -1576.4454205 302.74187403 -1576.42292023 296.6905117 C-1576.39040991 287.94129123 -1576.37999421 279.19215417 -1576.37496826 270.44287983 C-1576.36621408 256.24776127 -1576.33959518 242.05273465 -1576.30175781 227.85766602 C-1576.2650409 214.0686082 -1576.23672758 200.27957535 -1576.21972656 186.49047852 C-1576.21867567 185.64049839 -1576.21762477 184.79051827 -1576.21654204 183.91478118 C-1576.21132188 179.6506742 -1576.20626705 175.38656704 -1576.20129442 171.12245977 C-1576.15982856 135.74824096 -1576.08937679 100.37412896 -1576 65 C-1571.53593063 65.84890695 -1569.2434797 68.37948855 -1566.1875 71.5625 C-1565.38421265 72.3822229 -1565.38421265 72.3822229 -1564.56469727 73.21850586 C-1561.19137878 76.68585412 -1557.97360561 80.25597971 -1554.83984375 83.94140625 C-1551.6720372 87.48585222 -1548.24354766 90.77394758 -1544.84375 94.09375 C-1542.70974674 96.22152784 -1540.73248653 98.44332846 -1538.77124023 100.73095703 C-1535.28128534 104.73506801 -1531.60574092 108.49184959 -1527.81640625 112.2109375 C-1526.46275319 113.55194462 -1525.10924194 114.89309489 -1523.75585938 116.234375 C-1521.66042197 118.30507953 -1519.56339445 120.3741198 -1517.46362305 122.44042969 C-1510.43670652 129.36273733 -1503.5416271 136.16832799 -1497.5378418 144.02099609 C-1495.55679087 146.57035294 -1493.32509019 148.76376676 -1491 151 C-1488.56310153 153.56439375 -1486.15976219 156.16011418 -1483.75 158.75 C-1478.90183424 163.94648059 -1473.99367211 169.0515154 -1468.9296875 174.0390625 C-1466.33108787 176.67974472 -1463.90960855 179.45393779 -1461.5078125 182.2734375 C-1460.02203902 184.0304117 -1460.02203902 184.0304117 -1458.3046875 185.6015625 C-1457 187 -1457 187 -1457 189 C-1456.34 189 -1455.68 189 -1455 189 C-1453.71558563 190.47447091 -1452.49983458 192.00878789 -1451.3125 193.5625 C-1445.14090372 201.29957436 -1438.0607427 208.08431246 -1431 215 C-1427.35461594 218.59612211 -1423.83660073 222.2902648 -1420.375 226.0625 C-1419.85719971 226.62469238 -1419.33939941 227.18688477 -1418.8059082 227.76611328 C-1416.20312193 230.59393912 -1413.60761114 233.42824154 -1411.01953125 236.26953125 C-1405.24704985 242.61627519 -1405.24704985 242.61627519 -1399.25 248.75 C-1389.57014388 258.28956835 -1389.57014388 258.28956835 -1388 263 C-1387.34 263 -1386.68 263 -1386 263 C-1386 263.66 -1386 264.32 -1386 265 C-1385.34 265 -1384.68 265 -1384 265 C-1382.64902626 266.51151546 -1381.37072655 268.08813313 -1380.125 269.6875 C-1376.67387177 273.99591487 -1373.13339457 278.14505164 -1369.375 282.1875 C-1368.87621338 282.72415283 -1368.37742676 283.26080566 -1367.86352539 283.8137207 C-1365.03990276 286.83937726 -1362.19903122 289.84856066 -1359.35546875 292.85546875 C-1358.09072615 294.19491635 -1356.82640854 295.53476535 -1355.5625 296.875 C-1354.92892578 297.54660156 -1354.29535156 298.21820313 -1353.64257812 298.91015625 C-1349.42965803 303.40279014 -1345.36901326 307.99998467 -1341.375 312.6875 C-1336.63768533 318.24483255 -1331.66428958 323.45933984 -1326.45703125 328.57666016 C-1323.07902588 331.89994845 -1319.87518571 335.29735611 -1316.8046875 338.91015625 C-1314.42890517 341.66133276 -1311.96411719 344.32826959 -1309.5 347 C-1305.89635069 350.91293127 -1302.34824044 354.86435375 -1298.8671875 358.88671875 C-1296.96074188 361.0444323 -1295.01127851 363.15897519 -1293.05395508 365.27050781 C-1288.98878528 369.65725178 -1285.06012845 374.08326405 -1281.3125 378.75 C-1278.05031906 382.80301268 -1274.61785044 386.48933803 -1270.89453125 390.1171875 C-1266.10331432 394.87876803 -1261.87697086 400.13556971 -1257.625 405.375 C-1251.85240282 412.45866162 -1245.84607013 419.23370192 -1239.3125 425.625 C-1236.64826976 428.24795989 -1234.28714046 430.82693953 -1232.125 433.875 C-1229.58286797 437.43966559 -1226.62812309 440.4545517 -1223.5 443.5 C-1219.87982721 447.02978819 -1216.7000711 450.5807666 -1213.78515625 454.7109375 C-1211.24120965 457.97297844 -1208.40075043 460.93128931 -1205.5625 463.9375 C-1201.37553763 468.37635807 -1197.45554997 472.84406687 -1193.796875 477.734375 C-1191.54252107 480.57682126 -1189.09590264 483.22228337 -1186.625 485.875 C-1182.25545625 490.56650228 -1178.1491836 495.40804446 -1174.125 500.40234375 C-1170.87260306 504.37815987 -1167.43196708 508.17950834 -1164 512 C-1158 518.69083156 -1158 518.69083156 -1158 521 C-1157.34 521 -1156.68 521 -1156 521 C-1154.54340023 522.61382948 -1153.15951049 524.29363216 -1151.8125 526 C-1146.73475574 532.33501321 -1141.62586824 538.4510668 -1135.8125 544.125 C-1133.54314458 546.35537794 -1131.82577893 548.26414162 -1130.0625 550.9375 C-1128.14844508 553.77958154 -1126.26960956 555.76532754 -1123.8125 558.125 C-1119.34885305 562.46404597 -1115.77972255 567.19685397 -1112.12109375 572.21875 C-1109.85792645 575.18629166 -1107.42102567 577.68862967 -1104.7265625 580.25390625 C-1101.99537747 583.01598704 -1099.68264975 586.09016606 -1097.2890625 589.14453125 C-1094.66568004 592.41704419 -1091.93572464 595.58244325 -1089.1875 598.75 C-1085.08958103 603.4823979 -1081.14419079 608.29977469 -1077.3125 613.25 C-1073.44542422 618.24457136 -1069.39959696 622.98060759 -1065.12109375 627.6328125 C-1062.23636487 630.85223368 -1059.5792092 634.23253685 -1056.90234375 637.625 C-1054.0496099 641.18652398 -1051.02958558 644.58911646 -1048 648 C-1046.29925781 649.95050153 -1044.60072334 651.9029099 -1042.90234375 653.85546875 C-1041.49796749 655.43863623 -1040.06975871 657.00073734 -1038.62890625 658.55078125 C-1037.82324219 659.42089844 -1037.01757812 660.29101562 -1036.1875 661.1875 C-1035.43855469 661.98542969 -1034.68960938 662.78335938 -1033.91796875 663.60546875 C-1031.99189437 666.01011966 -1030.97519337 668.09505891 -1030 671 C-1029.34 671 -1028.68 671 -1028 671 C-1026.64617851 672.48738235 -1025.36860114 674.04430551 -1024.125 675.625 C-1020.49870949 680.16077816 -1016.79718113 684.6064725 -1013 689 C-1007.89943591 694.92025455 -1002.91982499 700.92834665 -998 707 C-992.77535155 713.43577678 -987.50340041 719.80061921 -982 726 C-977.92191989 730.60365606 -973.9277742 735.26737819 -970 740 C-963.94230403 747.28255622 -957.80078627 754.26911421 -951.0559082 760.92504883 C-947.74709204 764.20532595 -944.65620065 767.60660888 -941.62890625 771.14453125 C-936.88877104 776.77842027 -936.88877104 776.77842027 -931 781 C-931 781.66 -931 782.32 -931 783 C-930.01 783.33 -929.02 783.66 -928 784 C-926.79881564 785.4534124 -925.60020684 786.90915228 -924.42333984 788.38232422 C-922.05732267 791.07138593 -919.2428082 793.02973464 -916.3125 795.0625 C-915.70325684 795.49224121 -915.09401367 795.92198242 -914.46630859 796.36474609 C-909.55381995 799.76391496 -904.47820532 802.60170735 -899 805 C-899 805.66 -899 806.32 -899 807 C-890.98966393 806.85531413 -886.16034378 806.22290016 -880 801 C-879.34 801 -878.68 801 -878 801 C-878 800.34 -878 799.68 -878 799 C-877.34 799 -876.68 799 -876 799 C-875.72285156 798.40960937 -875.44570313 797.81921875 -875.16015625 797.2109375 C-874.06719081 795.12804714 -872.8963229 793.46203624 -871.4375 791.625 C-868.09220875 787.26050453 -865.16356716 782.66909394 -862.24780273 778.01220703 C-860.02168323 774.48343931 -857.61229894 771.24730441 -855 768 C-853.63979039 765.97613973 -852.30883888 763.93245506 -851 761.875 C-850.61610107 761.27373291 -850.23220215 760.67246582 -849.83666992 760.05297852 C-847.62175111 756.5775368 -845.42711677 753.08956988 -843.23828125 749.59765625 C-837.3024565 740.13746691 -831.23783378 730.78193832 -825.0144043 721.50805664 C-821.656428 716.50079432 -818.35324647 711.46674068 -815.125 706.375 C-811.83964542 701.21754392 -808.33233521 696.28464011 -804.6953125 691.37109375 C-802.99959975 688.99944021 -801.56422168 686.55108539 -800.17578125 683.98828125 C-798.15822486 680.57653306 -795.83770101 677.36581415 -793.56542969 674.12084961 C-790.92384468 670.34584536 -788.34939521 666.5342317 -785.8125 662.6875 C-783.14064557 658.65581509 -780.38756377 654.73456745 -777.421875 650.9140625 C-776.25767233 649.34686659 -775.15802455 647.73190283 -774.078125 646.10546875 C-772.14272231 643.21327864 -770.11234895 640.45195667 -768 637.6875 C-763.54248246 631.79350671 -759.28353122 625.77336881 -755.07421875 619.69995117 C-754.58824219 619.00361572 -754.10226562 618.30728027 -753.6015625 617.58984375 C-753.17182129 616.96972412 -752.74208008 616.34960449 -752.29931641 615.71069336 C-750.98547767 613.98087975 -749.53827918 612.52901882 -748 611 C-746.99207073 609.33811662 -745.99390323 607.6703096 -745 606 C-743.0459893 603.17505029 -741.02218838 600.40140999 -739 597.625 C-738.42983154 596.8407666 -737.85966309 596.0565332 -737.2722168 595.24853516 C-736.09544717 593.63066051 -734.91795291 592.01331269 -733.73974609 590.39648438 C-732.07246114 588.09981455 -730.41906047 585.79381782 -728.76953125 583.484375 C-727.78399613 582.11448119 -726.798326 580.7446845 -725.8125 579.375 C-725.35552734 578.72998535 -724.89855469 578.0849707 -724.42773438 577.42041016 C-723.33412108 575.91024172 -722.17336478 574.44907345 -721 573 C-720.34 573 -719.68 573 -719 573 C-718.76023437 572.29875 -718.52046875 571.5975 -718.2734375 570.875 C-716.78295538 567.50998515 -714.86539426 564.91772276 -712.625 562 C-711.85414062 560.989375 -711.08328125 559.97875 -710.2890625 558.9375 C-708.21352915 556.27401693 -706.11332121 553.63352336 -704 551 C-702.28904193 548.83533739 -700.58024439 546.66915107 -698.875 544.5 C-698.39635498 543.89124023 -697.91770996 543.28248047 -697.42456055 542.65527344 C-694.19446491 538.53989233 -690.99492204 534.40230896 -687.8125 530.25 C-686.20988744 528.16546302 -684.60508756 526.08263427 -683 524 C-681.84564453 522.49759766 -681.84564453 522.49759766 -680.66796875 520.96484375 C-679.95253906 520.04832031 -679.23710938 519.13179687 -678.5 518.1875 C-677.8709375 517.37667969 -677.241875 516.56585937 -676.59375 515.73046875 C-675.80484375 514.87388672 -675.80484375 514.87388672 -675 514 C-674.34 514 -673.68 514 -673 514 C-672.75121094 513.44183594 -672.50242187 512.88367188 -672.24609375 512.30859375 C-670.78385602 509.5995577 -669.03155987 507.4303568 -667.0625 505.0625 C-665.85980469 503.61230469 -665.85980469 503.61230469 -664.6328125 502.1328125 C-661.44430853 498.32919398 -658.23109518 494.54645257 -655.015625 490.765625 C-652.30777084 487.57368518 -649.65797003 484.34722348 -647.0625 481.0625 C-640.32464825 472.56393391 -633.14261898 464.41802012 -625.98828125 456.26953125 C-623.06802267 452.9361909 -620.15757359 449.59440712 -617.25 446.25 C-616.68224854 445.599104 -616.11449707 444.94820801 -615.52954102 444.27758789 C-613.33374974 441.74946771 -611.19180454 439.26648949 -609.234375 436.546875 C-608.82703125 436.03640625 -608.4196875 435.5259375 -608 435 C-607.34 435 -606.68 435 -606 435 C-605.72849121 434.40630615 -605.45698242 433.8126123 -605.17724609 433.20092773 C-604.02088655 431.03904859 -602.84742555 429.55293173 -601.1640625 427.78515625 C-600.60009766 427.18759521 -600.03613281 426.59003418 -599.45507812 425.97436523 C-598.85115234 425.34344971 -598.24722656 424.71253418 -597.625 424.0625 C-596.35637216 422.72173128 -595.08815043 421.38057819 -593.8203125 420.0390625 C-593.18125977 419.36520508 -592.54220703 418.69134766 -591.88378906 417.99707031 C-588.58045177 414.49508755 -585.3324489 410.94219531 -582.08447266 407.38891602 C-578.81040282 403.82513138 -575.51671672 400.32408757 -572 397 C-571.34 397 -570.68 397 -570 397 C-569.67 396.01 -569.34 395.02 -569 394 C-568.34 394 -567.68 394 -567 394 C-566.7628125 393.44828125 -566.525625 392.8965625 -566.28125 392.328125 C-564.68754857 389.43225289 -562.71082727 387.20487963 -560.5 384.75 C-559.7059375 383.85796875 -558.911875 382.9659375 -558.09375 382.046875 C-556 380 -556 380 -554 380 C-553.74499222 379.41967514 -553.48998444 378.83935028 -553.22724915 378.24143982 C-551.87086833 375.76415477 -550.36623483 374.12561926 -548.36401367 372.13696289 C-547.61951462 371.3926149 -546.87501556 370.64826691 -546.10795593 369.88136292 C-545.30276016 369.08648972 -544.49756439 368.29161652 -543.66796875 367.47265625 C-542.83920731 366.6467247 -542.01044586 365.82079315 -541.15657043 364.96983337 C-538.50487096 362.32932467 -535.84631612 359.69584071 -533.1875 357.0625 C-531.40774461 355.2927787 -529.62844237 353.52260156 -527.84960938 351.75195312 C-523.86864124 347.79085115 -519.8827948 343.83471869 -515.89425659 339.88124084 C-514.31807261 338.31588708 -512.7477634 336.74462062 -511.17895508 335.171875 C-508.01875772 332.02194607 -504.76109408 328.98226408 -501.5 325.9375 C-500.84902344 325.32583984 -500.19804688 324.71417969 -499.52734375 324.08398438 C-496.80153062 321.53713878 -494.08900719 319.07105822 -491.171875 316.7421875 C-488.82163186 314.98674467 -488.82163186 314.98674467 -486.75 312.1875 C-483.48136086 308.10431181 -479.34352783 304.88430728 -475 302 C-474.34 302 -473.68 302 -473 302 C-473 301.34 -473 300.68 -473 300 C-471.4609375 298.484375 -471.4609375 298.484375 -469.375 296.75 C-466.65952241 294.45339927 -464.08737736 292.12849225 -461.625 289.5625 C-459 287 -459 287 -457 287 C-457 286.34 -457 285.68 -457 285 C-454.91796875 283.08984375 -454.91796875 283.08984375 -452.1875 280.9375 C-451.29417969 280.22464844 -450.40085937 279.51179688 -449.48046875 278.77734375 C-447 277 -447 277 -444 276 C-443.57074219 275.11248047 -443.57074219 275.11248047 -443.1328125 274.20703125 C-441.59702503 271.21489359 -439.51332385 269.75626926 -436.875 267.6875 C-432.63612697 264.32313822 -428.54699541 260.8715696 -424.55859375 257.21484375 C-423 256 -423 256 -421 256 C-420.67 255.01 -420.34 254.02 -420 253 C-418.50048828 251.62475586 -418.50048828 251.62475586 -416.5703125 250.21484375 C-415.86285889 249.68914795 -415.15540527 249.16345215 -414.42651367 248.62182617 C-413.2872644 247.78808472 -413.2872644 247.78808472 -412.125 246.9375 C-406.91532332 243.05477041 -401.90957302 239.15301399 -397.1875 234.6875 C-391.36703078 229.23248137 -384.64538457 223.54846152 -377 221 C-377 220.34 -377 219.68 -377 219 C-376.443125 218.773125 -375.88625 218.54625 -375.3125 218.3125 C-372.86484281 217.06453738 -372.86484281 217.06453738 -370.85546875 214.8046875 C-367.53440028 211.41868023 -363.79391837 208.64393908 -360 205.8125 C-359.30132813 205.27947266 -358.60265625 204.74644531 -357.8828125 204.19726562 C-354.38169738 201.57142928 -351.22228842 199.3442051 -347 198 C-347 197.34 -347 196.68 -347 196 C-344.74343122 194.1857187 -342.48237318 192.48686175 -340.125 190.8125 C-339.44477783 190.32289795 -338.76455566 189.8332959 -338.0637207 189.32885742 C-336.69037861 188.34243164 -335.31481835 187.35908645 -333.93701172 186.37890625 C-332.23468449 185.16706554 -330.54049845 183.94380557 -328.84765625 182.71875 C-322.2626793 178 -322.2626793 178 -320 178 C-320 177.34 -320 176.68 -320 176 C-318.23095703 174.59887695 -318.23095703 174.59887695 -315.7578125 172.98828125 C-314.85546875 172.39466797 -313.953125 171.80105469 -313.0234375 171.18945312 C-312.06695313 170.57005859 -311.11046875 169.95066406 -310.125 169.3125 C-308.27265731 168.10145292 -306.4210925 166.88921518 -304.5703125 165.67578125 C-303.64452393 165.06943848 -302.71873535 164.4630957 -301.76489258 163.83837891 C-298.23330387 161.49022324 -294.765597 159.05781523 -291.29980469 156.61401367 C-288.08692279 154.35919815 -284.83205615 152.17150075 -281.5625 150 C-280.92417236 149.57485107 -280.28584473 149.14970215 -279.62817383 148.71166992 C-274.96352258 145.61456593 -270.24580878 142.60869445 -265.5078125 139.625 C-263.13528724 138.08766276 -260.85118384 136.47119769 -258.5625 134.8125 C-253.36971902 131.13111381 -247.94708326 127.84940863 -242.5 124.5625 C-241.60224854 124.01762939 -240.70449707 123.47275879 -239.77954102 122.91137695 C-238.93447998 122.40566162 -238.08941895 121.89994629 -237.21875 121.37890625 C-236.45498047 120.9207251 -235.69121094 120.46254395 -234.90429688 119.99047852 C-233 119 -233 119 -231 119 C-231 118.34 -231 117.68 -231 117 C-225.05622289 112.539293 -218.37382798 109.04217287 -211.8359375 105.5390625 C-205.7428792 102.23236144 -199.68913518 98.81105022 -193.9375 94.9375 C-188.29843442 91.21811632 -182.25150934 88.17482671 -176.26953125 85.046875 C-168.21597867 80.86320925 -168.21597867 80.86320925 -160.5625 76 C-154.72756829 71.94428042 -148.2662037 69.02126725 -141.89013672 65.92529297 C-138.50887227 64.27003693 -135.16677795 62.5367805 -131.8203125 60.8125 C-130 60 -130 60 -128 60 C-128 59.34 -128 58.68 -128 58 C-126.93523437 57.50371094 -125.87046875 57.00742187 -124.7734375 56.49609375 C-116.50236955 52.62878991 -108.28349384 48.68928681 -100.1484375 44.54296875 C-90.87848101 40 -90.87848101 40 -87 40 C-87 39.34 -87 38.68 -87 38 C-77.00807414 32.80825913 -66.86460569 28.14895402 -56.51147461 23.72216797 C-50.74060172 21.23876725 -45.08527131 18.62559213 -39.5 15.75 C-33.31337686 12.56923107 -27.04427168 9.89472586 -20.55859375 7.3828125 C-16.16145966 5.67415666 -11.82580589 3.83426559 -7.48828125 1.98046875 C-2.46215139 0 -2.46215139 0 0 0 Z " fill="#1C5092" transform="translate(1811,0)"/>
<path d="M0 0 C0 481.8 0 963.6 0 1460 C-60.39 1460 -120.78 1460 -183 1460 C-190 1452 -190 1452 -190 1450 C-190.58265625 1449.7525 -191.1653125 1449.505 -191.765625 1449.25 C-194.33114236 1447.81474554 -195.83724798 1446.22336987 -197.75 1444 C-198.36359375 1443.29875 -198.9771875 1442.5975 -199.609375 1441.875 C-201 1440 -201 1440 -201 1438 C-201.58265625 1437.7525 -202.1653125 1437.505 -202.765625 1437.25 C-205.34295015 1435.80813978 -206.82100205 1434.23189845 -208.75 1432 C-209.44996094 1431.19304687 -210.14992188 1430.38609375 -210.87109375 1429.5546875 C-212.90416 1427.115008 -214.86264501 1424.63138445 -216.8125 1422.125 C-219.84431031 1418.27394312 -223.11922643 1414.79162372 -226.625 1411.375 C-230.35107106 1407.73093325 -233.55745451 1404.11401309 -236.5625 1399.87109375 C-238.12567469 1397.836418 -239.83118729 1396.1452337 -241.6875 1394.375 C-245.26368981 1390.91417115 -248.24482157 1387.19783298 -251.25 1383.25 C-255.42955879 1377.77414672 -259.92205221 1372.90939638 -264.86572266 1368.12036133 C-268.1073023 1364.96006023 -270.84807211 1361.74930625 -273.44921875 1358.05859375 C-276.23081501 1354.36614733 -279.43554205 1351.04447148 -282.56640625 1347.6484375 C-284.5395126 1345.50114039 -286.47025245 1343.33245804 -288.375 1341.125 C-292.01954983 1336.92772223 -295.80510981 1332.86481935 -299.58618164 1328.79101562 C-302.37865486 1325.77649879 -305.12942173 1322.73809759 -307.8125 1319.625 C-309.94549036 1317.15114436 -312.15449083 1314.83552103 -314.5 1312.5625 C-317.78360561 1309.34485968 -320.49165467 1305.83253618 -323.26171875 1302.171875 C-324.84545336 1300.19309648 -326.474596 1298.48890683 -328.3125 1296.75 C-331.50036168 1293.68283687 -334.1159429 1290.28941811 -336.75 1286.75 C-340.92204683 1281.16160662 -345.46734764 1276.40183998 -350.48046875 1271.54296875 C-353.33817392 1268.65868027 -355.72372293 1265.6018283 -358.1484375 1262.35546875 C-360.7627956 1259.02960813 -363.64061044 1255.96882569 -366.52246094 1252.87451172 C-370.91689721 1248.13848484 -375.13695293 1243.26191192 -379.32080078 1238.33935547 C-382.52314192 1234.60041131 -385.85551746 1231.06705166 -389.37719727 1227.62646484 C-393.39803359 1223.59655487 -397.00505763 1219.17229547 -400.6875 1214.8359375 C-401.687061 1213.66108469 -402.68707634 1212.48661832 -403.6875 1211.3125 C-404.19853271 1210.71268311 -404.70956543 1210.11286621 -405.23608398 1209.49487305 C-409.2985572 1204.7550056 -413.51083985 1200.17430952 -417.77783203 1195.61889648 C-420.69889574 1192.47820032 -423.43372139 1189.26939031 -426.0625 1185.875 C-428.93314748 1182.18416752 -432.01745216 1178.94173867 -435.375 1175.6875 C-439.86130445 1171.30653696 -443.63577505 1166.7273648 -447.3684082 1161.70043945 C-450.52082455 1157.49993076 -453.98277488 1153.89569625 -457.7578125 1150.26171875 C-462.78138592 1145.19438597 -468.07187734 1139.57677811 -471 1133 C-471.66 1133 -472.32 1133 -473 1133 C-474.33984375 1131.671875 -474.33984375 1131.671875 -475.9375 1129.75 C-479.52171412 1125.52708944 -483.23641307 1121.44843065 -487.00366211 1117.38964844 C-496 1107.64538099 -496 1107.64538099 -496 1105 C-496.66 1105 -497.32 1105 -498 1105 C-498 1104.34 -498 1103.68 -498 1103 C-498.66 1103 -499.32 1103 -500 1103 C-500 1102.34 -500 1101.68 -500 1101 C-500.66 1101 -501.32 1101 -502 1101 C-503.4453125 1099.6015625 -503.4453125 1099.6015625 -505.125 1097.625 C-505.75148438 1096.89152344 -506.37796875 1096.15804688 -507.0234375 1095.40234375 C-508.97614698 1093.02899132 -510.86345426 1090.61361335 -512.75 1088.1875 C-516.61971452 1083.28836628 -520.95526768 1079.01166169 -525.41015625 1074.6484375 C-528.27517096 1071.71860345 -530.69810225 1068.63677633 -533.14453125 1065.359375 C-535.35663316 1062.54651278 -537.75125219 1059.92955808 -540.1875 1057.3125 C-544.20065147 1052.99495504 -548.11140805 1048.60936445 -551.9375 1044.125 C-552.43668945 1043.54016846 -552.93587891 1042.95533691 -553.45019531 1042.3527832 C-555.46687163 1039.98562021 -557.47951381 1037.61508899 -559.48828125 1035.24121094 C-566.17090691 1027.34636757 -573.02714638 1019.66678148 -580.09765625 1012.1171875 C-582.9099302 1009.10987889 -585.63764046 1006.03857491 -588.328125 1002.921875 C-591.10939918 999.72470936 -593.96384334 996.59340729 -596.8046875 993.44921875 C-598.7696357 991.25700786 -600.70209042 989.04152299 -602.625 986.8125 C-604.75823145 984.35220561 -606.95371993 982.05581531 -609.3125 979.8125 C-612.48172273 976.71386129 -615.10804456 973.29540342 -617.75 969.75 C-621.91299353 964.17453366 -626.44280911 959.421667 -631.44921875 954.578125 C-634.45656199 951.53854378 -637.03280083 948.31539087 -639.5625 944.875 C-640.95392095 942.96327203 -640.95392095 942.96327203 -642.6875 941.375 C-644 940 -644 940 -644 938 C-644.66 938 -645.32 938 -646 938 C-647.35097374 936.48848454 -648.62927345 934.91186687 -649.875 933.3125 C-653.46977231 928.81323659 -657.19493039 924.52118018 -661.125 920.3125 C-664.29727014 916.91307601 -667.46126999 913.52047989 -670.5 910 C-674.09706855 905.8386854 -677.84524589 901.82152458 -681.58666992 897.79052734 C-684.94117559 894.16920401 -688.20937808 890.48756435 -691.4296875 886.74609375 C-693.02710124 884.96986504 -694.70849119 883.33509808 -696.4375 881.6875 C-699.20946989 878.97658671 -701.36776552 876.13153912 -703.5625 872.9375 C-707.51123573 867.32083071 -712.12396679 862.66644543 -717.07641602 857.94702148 C-720.61809108 854.53960923 -723.33735033 851.16660784 -726 847 C-727.55988186 845.27327092 -727.55988186 845.27327092 -729.1875 843.8125 C-733.00432149 840.11749196 -736.25726945 836.06539947 -739.578125 831.92578125 C-742.93623159 827.86897183 -746.5175161 824.04610544 -750.12890625 820.21484375 C-752 818 -752 818 -752 816 C-752.66 816 -753.32 816 -754 816 C-754 815.34 -754 814.68 -754 814 C-754.66 814 -755.32 814 -756 814 C-759 810.53846154 -759 810.53846154 -759 808 C-759.66 808 -760.32 808 -761 808 C-762.515625 806.49609375 -762.515625 806.49609375 -764.25 804.4375 C-764.86488281 803.71175781 -765.47976563 802.98601563 -766.11328125 802.23828125 C-767.04720703 801.13033203 -767.04720703 801.13033203 -768 800 C-768.59167969 799.33355469 -769.18335938 798.66710938 -769.79296875 797.98046875 C-770.33566406 797.36816406 -770.87835937 796.75585938 -771.4375 796.125 C-772.17806641 795.29355469 -772.17806641 795.29355469 -772.93359375 794.4453125 C-774 793 -774 793 -774 791 C-774.66 791 -775.32 791 -776 791 C-776 790.34 -776 789.68 -776 789 C-776.639375 788.731875 -777.27875 788.46375 -777.9375 788.1875 C-780 787 -780 787 -781 784 C-781.66 784 -782.32 784 -783 784 C-783 783.34 -783 782.68 -783 782 C-783.66 782 -784.32 782 -785 782 C-786.61458128 780.03129122 -788.12846366 778.05559212 -789.625 776 C-793.2192792 771.14762453 -796.87767242 766.90467251 -801.50390625 762.9765625 C-803.73262703 760.03209067 -803.77986011 757.6685352 -804 754 C-803.19617102 751.2025889 -802.34841077 748.76622999 -801.2109375 746.1171875 C-800.91063629 745.38106232 -800.61033508 744.64493713 -800.30093384 743.88650513 C-799.3409461 741.54266754 -798.35875752 739.20894659 -797.375 736.875 C-796.73673603 735.33136718 -796.10000357 733.78710017 -795.46484375 732.2421875 C-794.52960907 729.96878425 -793.5927916 727.69616198 -792.64851379 725.42649841 C-790.36456951 719.93290177 -788.20505756 714.40484803 -786.12133789 708.83178711 C-784.88896517 705.71959657 -783.49966394 702.71005003 -782.0625 699.6875 C-779.76793803 694.82185192 -777.78484023 689.9210745 -775.9375 684.875 C-773.9847151 679.54820208 -771.8846229 674.37333571 -769.48046875 669.23046875 C-767.41595057 664.72557024 -765.45712549 660.17740032 -763.5 655.625 C-763.13221436 654.77526611 -762.76442871 653.92553223 -762.38549805 653.05004883 C-760.37699233 648.3691603 -758.47276112 643.66416337 -756.6640625 638.90234375 C-753.58839002 630.83492835 -750.22388642 622.89412599 -746.875 614.9375 C-743.04016243 605.81785243 -739.22450142 596.69796928 -735.6796875 587.4609375 C-735.42657806 586.80350052 -735.17346863 586.14606354 -734.91268921 585.46870422 C-733.73009047 582.39044145 -732.56236033 579.30761423 -731.41357422 576.21655273 C-731.00381348 575.14091064 -730.59405273 574.06526855 -730.171875 572.95703125 C-729.8222168 572.01835205 -729.47255859 571.07967285 -729.11230469 570.11254883 C-728 568 -728 568 -725 567 C-720.68739243 570.03842806 -717.39453159 573.69667756 -713.984375 577.6953125 C-711.70466395 580.34300841 -709.35733556 582.92121776 -707 585.5 C-704.15475772 588.61907011 -701.3280042 591.74755391 -698.5625 594.9375 C-695.63882313 598.30144821 -692.64133064 601.59426921 -689.625 604.875 C-670 626.22261272 -670 626.22261272 -670 629 C-669.34 629 -668.68 629 -668 629 C-668 629.66 -668 630.32 -668 631 C-667.34 631 -666.68 631 -666 631 C-664.66015625 632.36328125 -664.66015625 632.36328125 -663.0625 634.3125 C-660.02705677 637.9004193 -656.79918289 641.22120947 -653.4375 644.5 C-650.41610426 647.46392217 -647.55520815 650.3948832 -645.125 653.875 C-642.33269606 657.83144231 -639.00183392 661.11358631 -635.5625 664.5 C-630.8172038 669.17252573 -626.29122669 673.90248855 -622 679 C-620.00317728 681.33605691 -618.00115872 683.66765714 -616 686 C-614.95174473 687.22258922 -613.90356574 688.44524384 -612.85546875 689.66796875 C-612.36095215 690.24466309 -611.86643555 690.82135742 -611.35693359 691.41552734 C-610.23170506 692.72944119 -609.10958753 694.04601853 -607.98828125 695.36328125 C-604.94278229 698.90571478 -601.77761353 702.23201517 -598.4375 705.5 C-595.08216437 708.80432546 -592.27487529 712.18264008 -589.55078125 716.01171875 C-587.16244814 719.07383853 -584.36405673 721.68023131 -581.5390625 724.3359375 C-580 726 -580 726 -580 728 C-579.34 728 -578.68 728 -578 728 C-577.7525 728.78375 -577.505 729.5675 -577.25 730.375 C-576.30315509 733.07644016 -576.30315509 733.07644016 -574.296875 733.8046875 C-570.98281851 735.52934955 -568.59527561 738.1161807 -566 740.75 C-565.47921875 741.26304687 -564.9584375 741.77609375 -564.421875 742.3046875 C-561.9672487 744.7717109 -559.94281187 747.08640014 -558.01171875 750.00390625 C-555.63545063 753.5429308 -552.88075731 756.25504199 -549.8125 759.1875 C-544.92598071 763.96014143 -540.49902453 768.8840426 -536.25 774.2421875 C-533.28948223 777.87087768 -530.13345318 781.29234515 -526.94921875 784.72412109 C-524.37102332 787.5029437 -521.84184734 790.30951144 -519.375 793.1875 C-516.85656124 796.10454058 -514.19437099 798.80734897 -511.4375 801.5 C-506.8341497 806.04826748 -502.07778396 810.76664811 -500 817 C-498.67845575 817.68974126 -497.3435263 818.3541213 -496 819 C-494.46484375 820.5234375 -494.46484375 820.5234375 -492.9375 822.375 C-489.97833995 825.87562337 -486.93035813 829.26454196 -483.8125 832.625 C-479.81464311 836.94477655 -475.97458947 841.37005924 -472.1875 845.875 C-467.36854408 851.59384322 -462.21356506 856.86179036 -456.87109375 862.09008789 C-453.09344192 865.81650479 -449.77496596 869.65211399 -446.62890625 873.93359375 C-444.7830112 876.27526876 -442.76214372 878.29650859 -440.625 880.375 C-436.5040897 884.39131866 -432.91974555 888.68140389 -429.32421875 893.16796875 C-426.13382628 897.05542176 -422.74509757 900.74232467 -419.33984375 904.44140625 C-417.33094152 906.63811903 -415.37485887 908.86549369 -413.4375 911.125 C-410.91549146 914.03866163 -408.25709594 916.7454957 -405.5 919.4375 C-402.71435614 922.18587772 -400.20459215 924.92053725 -397.875 928.0625 C-390.73135291 937.55405907 -382.08178999 946.05696511 -373.5625 954.3125 C-370.44238865 957.3817952 -367.89585636 960.44535893 -365.4375 964.0625 C-361.07310354 970.34580288 -355.67676121 975.45651496 -350.22070312 980.79101562 C-345.67714155 985.25451444 -341.54017636 989.78865686 -337.6875 994.87109375 C-335.32490162 997.85168661 -332.64181829 1000.43842617 -329.921875 1003.08984375 C-324.75717754 1008.22304916 -320.19736293 1013.9430926 -315.5 1019.5 C-314.08518003 1021.17301271 -312.67013522 1022.84583274 -311.25439453 1024.51806641 C-310.19871023 1025.76524502 -309.14414676 1027.01337224 -308.08984375 1028.26171875 C-304.90175866 1031.97738294 -301.5595521 1035.4470386 -298.0625 1038.875 C-293.9879022 1042.89411916 -290.43975627 1047.11002211 -286.93359375 1051.625 C-284.46093771 1054.66212096 -281.73393266 1057.35026006 -278.9296875 1060.078125 C-276.43120028 1062.56649689 -274.14106004 1065.20176649 -271.84375 1067.875 C-269.78798233 1070.24435934 -267.6768946 1072.55785523 -265.5625 1074.875 C-262.6462886 1078.09508552 -259.89957393 1081.37084292 -257.25 1084.8125 C-253.4299136 1089.68138768 -249.14088281 1093.92709542 -244.71899414 1098.23779297 C-241.59483882 1101.3113159 -238.78847286 1104.39397275 -236.1875 1107.9375 C-230.89865355 1115.01522098 -223.67610393 1120.04896658 -215 1122 C-207.58048231 1122.87072891 -198.76852606 1123.75865458 -192.125 1119.8125 C-190.41023602 1118.4513005 -190.41023602 1118.4513005 -189 1117 C-188.236875 1116.319375 -187.47375 1115.63875 -186.6875 1114.9375 C-181.3506555 1105.64743736 -181.57484704 1094.86017234 -181.64596558 1084.45492554 C-181.64537313 1082.90178104 -181.64345369 1081.34863659 -181.64034045 1079.79549509 C-181.63558924 1075.53185529 -181.64950723 1071.26845141 -181.6664685 1067.00485031 C-181.68160371 1062.34940271 -181.67907903 1057.69395882 -181.67876434 1053.03849125 C-181.68057059 1044.84720099 -181.69339272 1036.65598531 -181.71323776 1028.46471977 C-181.7428413 1016.17031261 -181.75403667 1003.87593466 -181.76123782 991.58149635 C-181.77382008 970.6419489 -181.79903934 949.70243523 -181.83081055 928.76290894 C-181.8784154 897.14346324 -181.90460409 865.52401497 -181.92382812 833.90454102 C-181.92423793 833.23216037 -181.92464773 832.55977972 -181.92506995 831.86702389 C-181.93522547 815.16350705 -181.9443941 798.45998976 -181.95295977 781.75647202 C-181.95814608 771.66189047 -181.96398491 761.56730949 -181.97029022 751.47272857 C-182.02066215 670.59279597 -181.99227354 589.71319701 -181.7890625 449.50390625 C-181.78696585 448.17406372 -181.78696585 448.17406372 -181.78482684 446.81735569 C-181.70673595 397.31675052 -181.62098022 347.81615948 -181.53265116 298.31557166 C-181.49974632 279.86885285 -181.46768553 261.4221326 -181.43577875 242.97541203 C-181.29626598 162.31693051 -181.15170422 81.65845957 -181 1 C-157.54818522 0.86958255 -134.09637026 0.73919662 -110.64455509 0.60884857 C-99.75628209 0.54832948 -88.86800914 0.48779994 -77.97973633 0.42724609 C-68.49316448 0.37448767 -59.00659252 0.32174855 -49.52002043 0.26903296 C-44.49367893 0.24110157 -39.46733748 0.2131603 -34.44099617 0.18519592 C-29.71578675 0.15890722 -24.99057718 0.13264422 -20.26536751 0.10640144 C-18.52583816 0.09673586 -16.78630887 0.08706066 -15.04677963 0.07737541 C-12.68243677 0.06421277 -10.31809371 0.05108386 -7.95375061 0.03796387 C-6.90756383 0.03212744 -6.90756383 0.03212744 -5.84024197 0.02617311 C-1.11412121 0 -1.11412121 0 0 0 Z " fill="#1B4F91" transform="translate(1811,428)"/>
<path d="M0 0 C0.95597076 0.00201416 1.91194153 0.00402832 2.8968811 0.00610352 C4.39268204 0.00984985 4.39268204 0.00984985 5.91870117 0.01367188 C6.95674896 0.01455811 7.99479675 0.01544434 9.06430054 0.01635742 C52.5370914 0.05798997 96.01143734 0.66926491 139.48120117 1.13867188 C140.76475107 6.05776225 140.61947121 10.91535601 140.60655034 15.95977569 C140.60795265 16.96254509 140.60935497 17.9653145 140.61079978 18.99847086 C140.61430227 22.38634394 140.61063133 25.77417206 140.60704231 29.16204453 C140.6080847 31.61485875 140.60956538 34.06767281 140.61144668 36.52048653 C140.61454284 41.88452331 140.61450486 47.24854677 140.61176313 52.61258277 C140.60767719 60.64269617 140.60934301 68.67280129 140.61214578 76.70291487 C140.61675184 90.3869301 140.61659282 104.07094163 140.6138649 117.7549572 C140.61111625 131.62730166 140.61053121 145.49964368 140.61260223 159.3719883 C140.61273141 160.24729638 140.61286058 161.12260447 140.61299367 162.02443704 C140.61352692 165.5892627 140.61407563 169.15408835 140.61464394 172.71891401 C140.61993703 205.94357853 140.62029035 239.16824142 140.61749649 272.39290619 C140.6174137 273.3779754 140.6173309 274.36304462 140.6172456 275.37796442 C140.6171212 276.85791752 140.6171212 276.85791752 140.61699429 278.36776866 C140.61447354 308.39694577 140.61381859 338.42612219 140.61501694 368.45529938 C140.61509442 370.46430827 140.61517157 372.47331717 140.61524841 374.48232606 C140.61555886 382.55516763 140.61587752 390.62800919 140.61620817 398.70085076 C140.61712528 421.26895731 140.6176958 443.83706387 140.61799431 466.40517044 C140.61800795 467.43294966 140.6180216 468.46072889 140.61803566 469.51965293 C140.61844507 502.27970744 140.61731735 535.0397617 140.61514473 567.79981613 C140.61507448 568.86270619 140.61500423 569.92559625 140.61493185 571.0206951 C140.61378683 588.28260487 140.6125674 605.54451463 140.61134168 622.80642439 C140.60648443 691.28419895 140.60671122 759.76197155 140.61157227 828.23974609 C140.61279339 845.49759801 140.61400442 862.75544993 140.61514473 880.01330185 C140.61521518 881.07584041 140.61528563 882.13837897 140.61535821 883.23311566 C140.61751334 915.96185909 140.61842887 948.69060236 140.61799431 981.41934586 C140.61798072 982.44632151 140.61796714 983.47329717 140.61795314 984.5313933 C140.61764071 1007.071744 140.61700716 1029.61209467 140.61608381 1052.15244534 C140.61575464 1060.21691477 140.61544157 1068.2813842 140.61513309 1076.34585362 C140.61505571 1078.35219175 140.61497698 1080.35852988 140.6148969 1082.36486801 C140.6137018 1112.39109797 140.61472265 1142.41732716 140.6172456 1172.44355703 C140.61732839 1173.42895742 140.61741119 1174.41435782 140.61749649 1175.42961884 C140.61757917 1176.41321161 140.61766186 1177.39680439 140.61774704 1178.41020301 C140.62050089 1211.53226505 140.61949955 1244.65432512 140.61421575 1277.77638689 C140.61366336 1281.32791116 140.61312666 1284.87943543 140.61260223 1288.4309597 C140.61240692 1289.73842368 140.61240692 1289.73842368 140.61220767 1291.07230107 C140.61022988 1304.9132051 140.61161424 1318.7541067 140.61437124 1332.59501052 C140.61700676 1346.18151381 140.6161059 1359.76801297 140.61135715 1373.35451573 C140.60867473 1381.33491299 140.60876805 1389.31529895 140.61283875 1397.29569568 C140.61554777 1403.19736738 140.61312296 1409.09902927 140.60858247 1415.00070012 C140.60756518 1417.39039927 140.60826751 1419.78009983 140.61078841 1422.16979786 C140.61394385 1425.38620892 140.61107361 1428.60255673 140.60655034 1431.81896472 C140.61013645 1433.23335808 140.61013645 1433.23335808 140.61379501 1434.67632504 C140.59535687 1441.02451618 140.59535687 1441.02451618 139.48120117 1442.13867188 C81.40120117 1442.13867188 23.32120117 1442.13867188 -36.51879883 1442.13867188 C-36.51879883 966.60867188 -36.51879883 491.07867187 -36.51879883 1.13867188 C-11.97329074 -0.03016184 -11.97329074 -0.03016184 0 0 Z " fill="#1A4F91" transform="translate(36.518798828125,9.861328125)"/>
<path d="M0 0 C0.495 0.99 0.495 0.99 1 2 C-0.06539613 4.6316195 -1.19508314 7.14025287 -2.4375 9.6875 C-2.80512451 10.45497559 -3.17274902 11.22245117 -3.55151367 12.01318359 C-6.15566596 17.39935984 -8.93237975 22.6691242 -11.79125977 27.92407227 C-17.87487187 39.21678635 -23.15140314 50.94350842 -28.609375 62.546875 C-32.7925932 71.41807134 -37.08218743 80.18412183 -41.73999023 88.81640625 C-44.76365258 94.45431161 -47.49125469 100.20427815 -50.17431641 106.01049805 C-52.87035877 111.81362322 -55.82989462 117.44030762 -59 123 C-60 120 -60 120 -58.734375 116.98046875 C-58.08253911 115.7111581 -57.42016736 114.44722826 -56.75 113.1875 C-56.0008334 111.73461658 -55.25216229 110.28147758 -54.50390625 108.828125 C-54.0980127 108.04759766 -53.69211914 107.26707031 -53.27392578 106.46289062 C-51.0385276 102.14117792 -48.86390277 97.78914313 -46.6875 93.4375 C-46.22529053 92.51525635 -45.76308105 91.5930127 -45.28686523 90.64282227 C-41.40537386 82.87249706 -37.65252204 75.0440565 -33.92138672 67.20068359 C-30.35617532 59.71540504 -26.68954273 52.28747896 -22.95166016 44.88720703 C-21.62992808 42.26612214 -20.31787104 39.64024295 -19.00610352 37.01416016 C-18.00770814 35.01543124 -17.00776757 33.01748021 -16.0078125 31.01953125 C-14.64294294 28.29045923 -13.28434077 25.55837547 -11.9296875 22.82421875 C-8.10914178 15.12534969 -4.19681715 7.50340036 0 0 Z " fill="#D9E2ED" transform="translate(1016,969)"/>
<path d="M0 0 C0 3.54241999 -0.45400919 3.84418107 -2.81640625 6.29296875 C-3.41195312 6.91880859 -4.0075 7.54464844 -4.62109375 8.18945312 C-5.58208984 9.17848633 -5.58208984 9.17848633 -6.5625 10.1875 C-7.86675728 11.55515867 -9.17015432 12.92363825 -10.47265625 14.29296875 C-11.06312744 14.9068042 -11.65359863 15.52063965 -12.26196289 16.15307617 C-14.05809192 18.06173133 -15.78536373 20.01803763 -17.5 22 C-31.48555048 38.12411766 -46.86472918 52.9711772 -62 68 C-62.66 67.67 -63.32 67.34 -64 67 C-63.56453354 66.56675415 -63.12906708 66.1335083 -62.68040466 65.68713379 C-58.11840131 61.14738049 -53.56002233 56.60401065 -49.00366211 52.05859375 C-47.30633333 50.36627089 -45.60810523 48.6748495 -43.90893555 46.984375 C-41.45640659 44.54407631 -39.00720904 42.10047494 -36.55859375 39.65625 C-35.80726669 38.91008423 -35.05593964 38.16391846 -34.28184509 37.3951416 C-29.64677245 32.76055505 -25.26695871 27.97391965 -21 23 C-19.50429773 21.32947538 -18.00495734 19.66219168 -16.5 18 C-13.71916584 14.92121932 -10.96642901 11.82320393 -8.25 8.6875 C-5.61384097 5.65806783 -2.88256788 2.79521734 0 0 Z " fill="#C8D5E5" transform="translate(652,1341)"/>
<path d="M0 0 C0.33 0.66 0.66 1.32 1 2 C0.19897461 3.96435547 0.19897461 3.96435547 -1.09765625 6.3671875 C-1.56623047 7.24640869 -2.03480469 8.12562988 -2.51757812 9.03149414 C-3.02740234 9.96985107 -3.53722656 10.90820801 -4.0625 11.875 C-5.09592239 13.80812875 -6.12848203 15.74171897 -7.16015625 17.67578125 C-7.65789551 18.60471191 -8.15563477 19.53364258 -8.66845703 20.49072266 C-10.17031333 23.3209535 -11.59884689 26.18119702 -13 29.0625 C-15.7826135 34.67683193 -18.75546692 40.18417721 -21.75 45.6875 C-22.2346875 46.58670166 -22.719375 47.48590332 -23.21875 48.41235352 C-23.67765625 49.24951904 -24.1365625 50.08668457 -24.609375 50.94921875 C-25.02155273 51.70549561 -25.43373047 52.46177246 -25.85839844 53.2409668 C-27 55 -27 55 -29 56 C-28.30323032 52.49704081 -26.91460341 49.65222806 -25.26953125 46.4921875 C-24.71330078 45.42226562 -24.15707031 44.35234375 -23.58398438 43.25 C-22.99939453 42.13625 -22.41480469 41.0225 -21.8125 39.875 C-21.24724609 38.78445313 -20.68199219 37.69390625 -20.09960938 36.5703125 C-17.03252738 30.69613026 -13.82044304 24.96880419 -10.3684082 19.31347656 C-8.27955331 15.7819888 -6.47478115 12.12839421 -4.6875 8.4375 C-1.11702128 1.11702128 -1.11702128 1.11702128 0 0 Z " fill="#C2D0E1" transform="translate(911,1178)"/>
<path d="M0 0 C4.14225745 1.63300534 6.93477844 4.63925535 10 7.75 C10.52078125 8.26304688 11.0415625 8.77609375 11.578125 9.3046875 C14.02765219 11.76658604 16.05058326 14.07647469 17.9765625 16.98828125 C20.40838973 20.60785421 23.24656804 23.42382353 26.375 26.4375 C30.81912603 30.79228439 35.06731472 35.16841523 39 40 C38.505 40.99 38.505 40.99 38 42 C32.78583614 36.88025762 27.66406314 31.74715648 22.91015625 26.1953125 C20.49166261 23.41577584 17.997053 20.70868193 15.5 18 C4.26590531 5.78944292 4.26590531 5.78944292 0 0 Z " fill="#E7ECF3" transform="translate(1235,1161)"/>
<path d="M0 0 C3.79812546 1.26604182 4.74560293 2.92044838 7.1875 6.0625 C9.98211416 9.57044056 12.77096481 12.88744303 16 16 C20.00756884 19.87932663 23.45572112 24.12051221 26.921875 28.484375 C28.8373979 30.80316588 30.8361864 32.91416167 33 35 C32.505 35.99 32.505 35.99 32 37 C26.09845932 31.29055287 20.52576035 25.64887818 15.609375 19.046875 C14.02229488 17.02835562 12.34657536 15.28120986 10.5 13.5 C6.55819751 9.69227242 3.15982659 5.47562065 0 1 C0 0.67 0 0.34 0 0 Z " fill="#CFDAE8" transform="translate(1472,1711)"/>
<path d="M0 0 C0.33 0.66 0.66 1.32 1 2 C-0.06535279 4.63151244 -1.19517326 7.14032547 -2.4375 9.6875 C-2.79932373 10.44337402 -3.16114746 11.19924805 -3.53393555 11.97802734 C-6.30186904 17.70523991 -9.22928206 23.34047879 -12.29663086 28.9128418 C-13.90346946 31.84781144 -15.3234068 34.75694839 -16.54296875 37.8671875 C-17.26419922 39.41792969 -17.26419922 39.41792969 -18 41 C-19.485 41.495 -19.485 41.495 -21 42 C-19.50876708 36.95032237 -17.31940241 32.59406394 -14.8125 28 C-11.24680839 21.37696974 -7.82027675 14.70607143 -4.5078125 7.953125 C-3.11314314 5.22159641 -1.61274703 2.60743532 0 0 Z " fill="#B4C6DB" transform="translate(1016,969)"/>
<path d="M0 0 C8.77783993 7.25125907 16.61998512 15.34400124 24 24 C25.31067243 25.50159716 26.62313997 27.00162957 27.9375 28.5 C28.95833333 29.66666667 29.97916667 30.83333333 31 32 C30.67 32.66 30.34 33.32 30 34 C26.16108934 29.92726615 22.32467608 25.85221585 18.4921875 21.7734375 C15.6105845 18.70745177 12.71992725 15.65051363 9.8203125 12.6015625 C8.54679844 11.25528075 7.27335746 9.90892987 6 8.5625 C5.39526855 7.93077881 4.79053711 7.29905762 4.16748047 6.64819336 C0 2.22627082 0 2.22627082 0 0 Z " fill="#E2E8F1" transform="translate(1165,1083)"/>
<path d="M0 0 C0.66 0 1.32 0 2 0 C3.4328718 1.61718311 4.79624749 3.29623372 6.125 5 C8.94092266 8.52665075 11.75074076 11.86818387 15 15 C19.0396795 18.9101507 22.51874639 23.18901096 26.01953125 27.58203125 C27.60270971 29.51494539 29.19140335 31.28268899 31 33 C30.67 33.66 30.34 34.32 30 35 C24.72158436 29.90935408 19.74446826 24.91170958 15.4921875 18.9296875 C13.81352238 16.75884831 11.96936915 14.9099165 10 13 C6.21241077 9.32166815 2.9063819 5.41461797 0 1 C0 0.67 0 0.34 0 0 Z " fill="#D1DCE9" transform="translate(1559,1809)"/>
<path d="M0 0 C11.29527303 8.98487627 21.1376989 20.65625459 30 32 C29.67 32.66 29.34 33.32 29 34 C20.48112122 24.5732135 20.48112122 24.5732135 16.75 20.25 C14.4504795 17.59544664 12.08503384 15.01553561 9.67578125 12.4609375 C9.08249023 11.83026367 8.48919922 11.19958984 7.87792969 10.54980469 C6.67850034 9.27811278 5.47478916 8.01044429 4.26660156 6.74707031 C0 2.2208277 0 2.2208277 0 0 Z " fill="#DDE5EF" transform="translate(1524,1481)"/>
<path d="M0 0 C0 3.38326234 -0.51897957 4.13055293 -2.37890625 6.84375 C-2.88486328 7.59068115 -3.39082031 8.3376123 -3.91210938 9.10717773 C-4.72905273 10.29162476 -4.72905273 10.29162476 -5.5625 11.5 C-6.66906713 13.12555492 -7.77453938 14.75185571 -8.87890625 16.37890625 C-9.41660645 17.1692627 -9.95430664 17.95961914 -10.50830078 18.77392578 C-12.95414664 22.42388037 -15.23696648 26.16776453 -17.5 29.93359375 C-19.10226308 32.14087805 -20.7446861 33.48835641 -23 35 C-21.40213752 30.23396193 -18.74752223 26.50111544 -15.875 22.4375 C-14.88333506 21.01747114 -13.89245694 19.5968925 -12.90234375 18.17578125 C-12.41233887 17.47404785 -11.92233398 16.77231445 -11.41748047 16.04931641 C-8.7299611 12.16384663 -6.14797493 8.20917588 -3.55859375 4.2578125 C-2 2 -2 2 0 0 Z " fill="#C8D4E4" transform="translate(818,1340)"/>
<path d="M0 0 C-7.65656882 3.50522244 -15.49974323 6.27088958 -23.5 8.875 C-24.46760254 9.19734619 -25.43520508 9.51969238 -26.43212891 9.85180664 C-27.35171387 10.14563232 -28.27129883 10.43945801 -29.21875 10.7421875 C-30.04310547 11.0088623 -30.86746094 11.27553711 -31.71679688 11.55029297 C-34.18671645 12.03677627 -35.63950942 11.80286491 -38 11 C-31.58540341 7.91902748 -25.1730835 5.73399682 -18.3125 3.875 C-16.49577006 3.37356711 -14.67935468 2.87099291 -12.86328125 2.3671875 C-11.59991943 2.02059082 -11.59991943 2.02059082 -10.31103516 1.66699219 C-8.34617095 1.09990905 -6.40894154 0.43844995 -4.48046875 -0.2421875 C-2 -1 -2 -1 0 0 Z " fill="#D8E1EC" transform="translate(132,1849)"/>
<path d="M0 0 C0 3.54241999 -0.45400919 3.84418107 -2.81640625 6.29296875 C-3.41259766 6.91961426 -4.00878906 7.54625977 -4.62304688 8.19189453 C-5.26306641 8.85044434 -5.90308594 9.50899414 -6.5625 10.1875 C-7.85646466 11.54201806 -9.14944467 12.89747749 -10.44140625 14.25390625 C-11.06160645 14.90246582 -11.68180664 15.55102539 -12.32080078 16.21923828 C-14.28195693 18.29901045 -16.15328981 20.4432857 -18 22.625 C-20.73970394 25.81783564 -23.68482038 28.41254273 -27 31 C-25.60286388 27.80554305 -23.97467102 25.81065188 -21.4375 23.4375 C-18.19973705 20.29341554 -15.31995888 17.02372679 -12.5 13.5 C-8.62340689 8.66605694 -4.48769423 4.26758934 0 0 Z " fill="#D8E1EC" transform="translate(652,1341)"/>
<path d="M0 0 C-2.95674872 1.97116581 -4.89686071 2.62902843 -8.296875 3.47265625 C-9.3384375 3.73240234 -10.38 3.99214844 -11.453125 4.25976562 C-13.08507812 4.65711914 -13.08507812 4.65711914 -14.75 5.0625 C-15.8225 5.33126953 -16.895 5.60003906 -18 5.87695312 C-23.32090032 7.19079612 -28.55377452 8.36979391 -34 9 C-33 7 -33 7 -30.54736328 6.14624023 C-28.94997314 5.73160522 -28.94997314 5.73160522 -27.3203125 5.30859375 C-26.16402344 5.00373047 -25.00773437 4.69886719 -23.81640625 4.38476562 C-22.59824219 4.07216797 -21.38007812 3.75957031 -20.125 3.4375 C-17.73162485 2.81175602 -15.33838907 2.18547866 -12.9453125 1.55859375 C-11.87812988 1.28329834 -10.81094727 1.00800293 -9.71142578 0.72436523 C-3.23822965 -1.00496782 -3.23822965 -1.00496782 0 0 Z " fill="#CBD7E6" transform="translate(129,1658)"/>
<path d="M0 0 C8.94218358 7.35246206 17.47205121 15.38711338 24 25 C23.67 25.66 23.34 26.32 23 27 C14.47842996 17.57023542 14.47842996 17.57023542 10.375 12.8125 C7.51038925 9.50511569 4.46444383 6.44991395 1.28515625 3.4453125 C0 2 0 2 0 0 Z " fill="#E4EAF2" transform="translate(1424,1370)"/>
<path d="M0 0 C4.44417118 3.62789484 8.30986841 7.3328076 12.0234375 11.69921875 C14.44208394 14.51459968 16.93558474 17.2588824 19.4375 20 C20.30246094 20.94875 21.16742187 21.8975 22.05859375 22.875 C22.69925781 23.57625 23.33992188 24.2775 24 25 C23.67 25.66 23.34 26.32 23 27 C8.65066195 11.77905177 8.65066195 11.77905177 3.0625 5.625 C2.45535156 4.95726562 1.84820313 4.28953125 1.22265625 3.6015625 C0 2 0 2 0 0 Z " fill="#CFDAE8" transform="translate(1194,1397)"/>
<path d="M0 0 C0.33 0.66 0.66 1.32 1 2 C0.35083008 3.86010742 0.35083008 3.86010742 -0.73046875 6.10546875 C-1.12169922 6.92466797 -1.51292969 7.74386719 -1.91601562 8.58789062 C-2.33560547 9.44576172 -2.75519531 10.30363281 -3.1875 11.1875 C-3.58775391 12.02603516 -3.98800781 12.86457031 -4.40039062 13.72851562 C-6.74984438 18.60639287 -9.25363762 23.33434069 -12 28 C-12.73046875 26.453125 -12.73046875 26.453125 -13 24 C-11.86550428 21.45544629 -10.69461923 19.15210595 -9.3125 16.75 C-8.56695071 15.40927519 -7.82215204 14.06813268 -7.078125 12.7265625 C-6.71783203 12.08493164 -6.35753906 11.44330078 -5.98632812 10.78222656 C-4.77616834 8.5955517 -3.65713965 6.37146196 -2.5625 4.125 C-1 1 -1 1 0 0 Z " fill="#C7D4E4" transform="translate(996,1010)"/>
<path d="M0 0 C0 0.66 0 1.32 0 2 C-3.66149631 3.73736975 -7.32766825 5.46439858 -10.99853516 7.18188477 C-12.24726907 7.76790912 -13.49467622 8.35676917 -14.74072266 8.94848633 C-16.52938229 9.79728145 -18.32321878 10.63514047 -20.1171875 11.47265625 C-21.19597168 11.98062744 -22.27475586 12.48859863 -23.38623047 13.01196289 C-24.24877441 13.33801514 -25.11131836 13.66406738 -26 14 C-26.66 13.67 -27.32 13.34 -28 13 C-7 0 -7 0 0 0 Z " fill="#C6D3E4" transform="translate(371,1560)"/>
<path d="M0 0 C0.66 0.33 1.32 0.66 2 1 C-0.03106576 4.02445306 -1.65767718 5.57364991 -4.9375 7.125 C-11.34574866 10.47716968 -16.57804778 15.27528698 -22 20 C-22.66 19.67 -23.32 19.34 -24 19 C-16.23739308 12.28639401 -8.4175201 5.88720344 0 0 Z " fill="#BCCBDF" transform="translate(529,1458)"/>
<path d="M0 0 C0.99 0.33 1.98 0.66 3 1 C-3.33140277 4.96593433 -9.67823455 8.89348433 -16.1875 12.5625 C-17.06792969 13.05878906 -17.94835937 13.55507812 -18.85546875 14.06640625 C-19.91701172 14.52853516 -19.91701172 14.52853516 -21 15 C-21.66 14.67 -22.32 14.34 -23 14 C-17.88413916 10.04683481 -12.60786551 7.20270891 -6.76953125 4.4296875 C-3.99269173 3.1115886 -3.99269173 3.1115886 -1.82421875 1.2578125 C-1.22222656 0.84273437 -0.62023437 0.42765625 0 0 Z " fill="#D0DBE8" transform="translate(437,1709)"/>
<path d="M0 0 C6.91249418 5.76041182 13.58087561 11.77450081 19 19 C18.67 19.66 18.34 20.32 18 21 C2.78566185 6.09615855 2.78566185 6.09615855 0 0 Z " fill="#D2DCE9" transform="translate(1452,1401)"/>
<path d="M0 0 C4.22539204 4.16075889 8.27629003 8.4686901 12.3125 12.8125 C12.95767578 13.50537109 13.60285156 14.19824219 14.26757812 14.91210938 C15.84587161 16.60731349 17.42332302 18.30329254 19 20 C18.67 20.66 18.34 21.32 18 22 C15.93097723 19.98550492 13.86989112 17.96381941 11.8125 15.9375 C10.9452832 15.09541992 10.9452832 15.09541992 10.06054688 14.23632812 C6.20180488 10.42118773 2.96125385 6.55620414 0 2 C0 1.34 0 0.68 0 0 Z " fill="#D2DCE9" transform="translate(1106,1297)"/>
<path d="M0 0 C6.87866183 5.70782577 13.7777958 11.6955245 19 19 C18.67 19.66 18.34 20.32 18 21 C13.30762016 16.41731215 8.80319423 11.75053386 4.54296875 6.76171875 C3.02700561 4.97495935 3.02700561 4.97495935 1.30078125 3.39453125 C0 2 0 2 0 0 Z " fill="#DAE2ED" transform="translate(1343,1280)"/>
<path d="M0 0 C0.66 0.33 1.32 0.66 2 1 C-0.09314568 4.44753406 -2.43929673 5.85480854 -5.94921875 7.71875 C-10.04377124 10.27687041 -13.48274673 13.71404003 -17 17 C-17.66 16.67 -18.32 16.34 -19 16 C-17.56770833 14.828125 -16.13541667 13.65625 -14.703125 12.484375 C-12.92257362 10.97076549 -12.92257362 10.97076549 -11.09375 9.0625 C-8.92698894 6.92807866 -6.66492334 5.09670609 -4.25 3.25 C-3.45078125 2.63640625 -2.6515625 2.0228125 -1.828125 1.390625 C-1.22484375 0.93171875 -0.6215625 0.4728125 0 0 Z " fill="#C4D2E3" transform="translate(550,1441)"/>
<path d="M0 0 C5.0336386 4.16798101 9.54413855 8.54280681 13.9375 13.375 C14.52595703 14.01566406 15.11441406 14.65632813 15.72070312 15.31640625 C17.1507253 16.87431658 18.57588609 18.43668698 20 20 C19.67 20.66 19.34 21.32 19 22 C13.96720107 17.06991125 9.07783613 12.09137284 4.5078125 6.7265625 C3.02203902 4.9695883 3.02203902 4.9695883 1.3046875 3.3984375 C0 2 0 2 0 0 Z " fill="#DDE4EE" transform="translate(1362,1301)"/>
<path d="M0 0 C0 0.66 0 1.32 0 2 C-1.00417969 2.57105469 -2.00835937 3.14210938 -3.04296875 3.73046875 C-5.60059717 5.19059054 -8.14360928 6.67198532 -10.67578125 8.17578125 C-11.88802083 8.88802083 -13.10026042 9.60026042 -14.3125 10.3125 C-14.93189453 10.68439453 -15.55128906 11.05628906 -16.18945312 11.43945312 C-17.75871165 12.35442797 -19.37651892 13.18510094 -21 14 C-21.66 13.67 -22.32 13.34 -23 13 C-4.14285714 0 -4.14285714 0 0 0 Z " fill="#D9E2ED" transform="translate(440,1521)"/>
<path d="M0 0 C0.66 0 1.32 0 2 0 C3.4328718 1.61718311 4.79624749 3.29623372 6.125 5 C10.12730204 10.0142293 14.35411983 14.58198316 19 19 C18.67 19.66 18.34 20.32 18 21 C15.73722534 18.82540301 13.49235109 16.63313544 11.25 14.4375 C10.29867188 13.52387695 10.29867188 13.52387695 9.328125 12.59179688 C5.34942383 8.67526291 2.53735697 4.97860193 0 0 Z " fill="#CCD8E6" transform="translate(1279,1493)"/>
<path d="M0 0 C0.66 0.33 1.32 0.66 2 1 C-0.41403062 3.18153177 -2.83117225 5.35938066 -5.25390625 7.53125 C-6.95798365 9.06322285 -8.65477233 10.60339621 -10.33984375 12.15625 C-11.03207031 12.7853125 -11.72429688 13.414375 -12.4375 14.0625 C-13.05496094 14.63097656 -13.67242188 15.19945312 -14.30859375 15.78515625 C-16 17 -16 17 -19 17 C-13.08668201 10.78169713 -6.7161195 5.33338902 0 0 Z " fill="#D4DEEA" transform="translate(571,1423)"/>
<path d="M0 0 C0.33 0.99 0.66 1.98 1 3 C0.04370117 4.79345703 0.04370117 4.79345703 -1.45703125 6.7578125 C-1.99263672 7.46550781 -2.52824219 8.17320313 -3.08007812 8.90234375 C-3.93762695 10.00255859 -3.93762695 10.00255859 -4.8125 11.125 C-5.37259766 11.86621094 -5.93269531 12.60742188 -6.50976562 13.37109375 C-10.70255829 18.85127915 -10.70255829 18.85127915 -13 20 C-11.40013936 15.03657693 -8.47460168 11.29801238 -5.375 7.1875 C-4.6015625 6.14819336 -4.6015625 6.14819336 -3.8125 5.08789062 C-2.54657074 3.38826337 -1.27394735 1.69362565 0 0 Z " fill="#D0DBE8" transform="translate(794,1375)"/>
<path d="M0 0 C4.07844089 3.38423818 8.00322055 6.8764982 11.8125 10.5625 C12.93591797 11.64724609 12.93591797 11.64724609 14.08203125 12.75390625 C16.07751953 15.09078153 17.03709575 17.10109778 18 20 C13.71058392 16.65216306 10.19975135 13.07554048 6.6796875 8.9296875 C5.20494513 7.23544859 3.68557568 5.67471633 2.0625 4.125 C0 2 0 2 0 0 Z " fill="#D9E1EC" transform="translate(1288,1219)"/>
<path d="M0 0 C0.66 0.33 1.32 0.66 2 1 C-2.14114201 4.75066211 -6.08708673 8.28496898 -11 11 C-13.00580329 12.32458708 -15.00715862 13.6559907 -17 15 C-17.66 14.67 -18.32 14.34 -19 14 C-17.44539063 12.86111328 -17.44539063 12.86111328 -15.859375 11.69921875 C-14.48957483 10.6953241 -13.11978363 9.69141721 -11.75 8.6875 C-11.06808594 8.18798828 -10.38617187 7.68847656 -9.68359375 7.17382812 C-6.44336389 4.79870818 -3.20612744 2.42112201 0 0 Z " fill="#CED9E7" transform="translate(528,1649)"/>
<path d="M0 0 C14.37019231 12.02403846 14.37019231 12.02403846 16 18 C9.74649963 12.89510174 3.40426312 7.4727727 0 0 Z " fill="#D6E0EB" transform="translate(1149,1065)"/>
<path d="M0 0 C3.79791193 2.84339247 6.72359179 5.86390487 9.6875 9.5625 C10.83798828 10.98755859 10.83798828 10.98755859 12.01171875 12.44140625 C14 15 14 15 16 18 C12.46554194 16.52467934 10.48430323 14.57453208 8 11.6875 C7.3090625 10.88570312 6.618125 10.08390625 5.90625 9.2578125 C5.2771875 8.51273438 4.648125 7.76765625 4 7 C3.175 6.030625 2.35 5.06125 1.5 4.0625 C0 2 0 2 0 0 Z " fill="#DEE5EF" transform="translate(1594,1848)"/>
<path d="M0 0 C0 4.31618166 -2.13270348 5.92789659 -5 9 C-5.66 9 -6.32 9 -7 9 C-7 9.66 -7 10.32 -7 11 C-7.66 11 -8.32 11 -9 11 C-9.268125 11.639375 -9.53625 12.27875 -9.8125 12.9375 C-11 15 -11 15 -14 16 C-12.34136495 11.67495164 -9.128959 8.90581175 -5.875 5.75 C-5.31167969 5.19570312 -4.74835937 4.64140625 -4.16796875 4.0703125 C-2.78313972 2.70895515 -1.39216796 1.35385141 0 0 Z " fill="#DDE5EE" transform="translate(687,1509)"/>
<path d="M0 0 C5.29012124 4.40843437 10.18808428 9.07559794 15 14 C14.67 14.99 14.34 15.98 14 17 C11.65863048 14.54921238 9.32832922 12.08817454 7 9.625 C6.33226562 8.92632813 5.66453125 8.22765625 4.9765625 7.5078125 C4.34492187 6.8375 3.71328125 6.1671875 3.0625 5.4765625 C2.47597656 4.85861816 1.88945313 4.24067383 1.28515625 3.60400391 C0 2 0 2 0 0 Z " fill="#CCD8E6" transform="translate(1165,1083)"/>
<path d="M0 0 C0 3.54957438 -0.48588719 3.88424715 -2.84375 6.35546875 C-3.72353516 7.28842773 -3.72353516 7.28842773 -4.62109375 8.24023438 C-5.24113281 8.88283203 -5.86117187 9.52542969 -6.5 10.1875 C-7.43005859 11.16879883 -7.43005859 11.16879883 -8.37890625 12.16992188 C-9.9127616 13.78636944 -11.45321411 15.39593746 -13 17 C-13 13.55262494 -12.66974196 13.27721902 -10.41015625 10.8984375 C-9.87326172 10.32609375 -9.33636719 9.75375 -8.78320312 9.1640625 C-8.21537109 8.57367187 -7.64753906 7.98328125 -7.0625 7.375 C-6.49853516 6.776875 -5.93457031 6.17875 -5.35351562 5.5625 C-1.79225128 1.79225128 -1.79225128 1.79225128 0 0 Z " fill="#CBD7E6" transform="translate(704,1490)"/>
<path d="M0 0 C4.58716587 4.44381694 8.78762713 9.20228499 13 14 C12.67 14.66 12.34 15.32 12 16 C10.3719224 14.3989569 8.74764115 12.79405264 7.125 11.1875 C6.22007813 10.29417969 5.31515625 9.40085937 4.3828125 8.48046875 C0 3.91803279 0 3.91803279 0 0 Z " fill="#C9D6E5" transform="translate(1577,1828)"/>
<path d="M0 0 C-14.09678068 6.45319293 -14.09678068 6.45319293 -19 5 C-4.1563981 -2.07819905 -4.1563981 -2.07819905 0 0 Z " fill="#BECDE0" transform="translate(113,1855)"/>
<path d="M0 0 C0.66 0.33 1.32 0.66 2 1 C-8.34971283 9.23016379 -8.34971283 9.23016379 -12 11 C-12.66 10.67 -13.32 10.34 -14 10 C-3.65028717 1.76983621 -3.65028717 1.76983621 0 0 Z " fill="#D7E0EC" transform="translate(464,1504)"/>
<path d="M0 0 C0.47050781 0.40992188 0.94101562 0.81984375 1.42578125 1.2421875 C2.04839844 1.78101563 2.67101562 2.31984375 3.3125 2.875 C4.23482422 3.67550781 4.23482422 3.67550781 5.17578125 4.4921875 C7.13498212 6.1640447 7.13498212 6.1640447 10 8 C10 8.66 10 9.32 10 10 C10.99 10.33 11.98 10.66 13 11 C13 11.66 13 12.32 13 13 C9.36938333 11.46781315 7.0136227 9.2816856 4.25 6.5 C3.45078125 5.7059375 2.6515625 4.911875 1.828125 4.09375 C0 2 0 2 0 0 Z " fill="#BBCBDE" transform="translate(870,773)"/>
<path d="M0 0 C0.33 0.99 0.66 1.98 1 3 C-1.31 5.31 -3.62 7.62 -6 10 C-6.99 9.67 -7.98 9.34 -9 9 C-6.03 6.03 -3.06 3.06 0 0 Z " fill="#7796BD" transform="translate(1270,365)"/>
<path d="M0 0 C1.0169313 2.65498232 1.13022151 3.69155375 0.00390625 6.359375 C-0.47175781 7.14828125 -0.94742188 7.9371875 -1.4375 8.75 C-1.91058594 9.54921875 -2.38367188 10.3484375 -2.87109375 11.171875 C-3.24363281 11.77515625 -3.61617187 12.3784375 -4 13 C-4.66 13 -5.32 13 -6 13 C-4.58707905 8.1725201 -2.57025846 4.2837641 0 0 Z " fill="#A5BAD3" transform="translate(797,1122)"/>
<path d="M0 0 C4.25171681 3.3618226 7.6381774 6.74828319 11 11 C10.67 11.66 10.34 12.32 10 13 C2.03392059 5.23034446 2.03392059 5.23034446 0 2 C0 1.34 0 0.68 0 0 Z " fill="#CAD6E5" transform="translate(1298,1514)"/>
<path d="M0 0 C-3.33909037 2.22606025 -6.09914263 3.11033078 -10 4 C-12.22265625 3.55078125 -12.22265625 3.55078125 -14 3 C-12.42274653 2.29866401 -10.83788667 1.614417 -9.25 0.9375 C-7.92742187 0.36322266 -7.92742187 0.36322266 -6.578125 -0.22265625 C-3.84743691 -1.04600008 -2.63098653 -0.9773992 0 0 Z " fill="#87A2C5" transform="translate(129,1658)"/>
<path d="M0 0 C0.33 0.99 0.66 1.98 1 3 C-0.65234375 5.48046875 -0.65234375 5.48046875 -2.9375 8.1875 C-3.68902344 9.08855469 -4.44054688 9.98960937 -5.21484375 10.91796875 C-5.80394531 11.60503906 -6.39304687 12.29210937 -7 13 C-7 9.16235973 -5.73464665 7.88513915 -3.5 4.8125 C-2.8503125 3.91144531 -2.200625 3.01039063 -1.53125 2.08203125 C-1.0259375 1.39496094 -0.520625 0.70789063 0 0 Z " fill="#BECDDF" transform="translate(1180,688)"/>
<path d="M0 0 C0 0.66 0 1.32 0 2 C-6.625 6 -6.625 6 -10 6 C-7.61707123 2.42560684 -4.48712563 0 0 0 Z " fill="#AFC1D8" transform="translate(440,1521)"/>
<path d="M0 0 C0.33 0.99 0.66 1.98 1 3 C-0.9375 6.1875 -0.9375 6.1875 -3 9 C-3.99 8.67 -4.98 8.34 -6 8 C-4.02 5.36 -2.04 2.72 0 0 Z " fill="#C7D4E4" transform="translate(794,1375)"/>
<path d="M0 0 C0.6875 1.6875 0.6875 1.6875 1 4 C-0.3125 6.75 -0.3125 6.75 -2 9 C-2.66 9 -3.32 9 -4 9 C-2.94124926 5.59687262 -1.99097846 2.98646769 0 0 Z " fill="#92ABCA" transform="translate(787,1141)"/>
<path d="M0 0 C0.33 0.66 0.66 1.32 1 2 C0.22265625 3.7265625 0.22265625 3.7265625 -0.9375 5.625 C-1.618125 6.73875 -2.29875 7.8525 -3 9 C-3.66 9 -4.32 9 -5 9 C-3.7508258 5.54074837 -2.32472205 2.85306797 0 0 Z " fill="#BBCADE" transform="translate(707,1270)"/>
</svg>
